<svg width="70" height="70" viewBox="0 0 70 70" fill="none" xmlns="http://www.w3.org/2000/svg">
<rect width="70" height="70" rx="13" fill="white"/>
<path d="M34.6612 33.6261C31.9764 31.6411 27.9527 28.1702 16.4164 28.1702V53.0231C27.9527 53.0231 31.9764 56.4941 34.6612 58.479M34.6612 33.6261V58.479M34.6612 33.6261C37.3461 31.6411 41.3698 28.1702 52.9061 28.1702V53.0231C41.3698 53.0231 37.3461 56.4941 34.6612 58.479M41.7898 12.1938V20.9232M48.1681 12H24.2018C23.5322 11.9992 22.8757 12.1857 22.3066 12.5384L16 16.4652L22.3066 20.3848C22.8757 20.7375 23.5322 20.924 24.2018 20.9232H48.1681C48.7644 20.9401 49.3581 20.8373 49.914 20.6208C50.4698 20.4043 50.9766 20.0785 51.4044 19.6627C51.8322 19.2469 52.1722 18.7495 52.4044 18.2C52.6366 17.6505 52.7563 17.06 52.7563 16.4634C52.7563 15.8669 52.6366 15.2764 52.4044 14.7268C52.1722 14.1773 51.8322 13.68 51.4044 13.2641C50.9766 12.8483 50.4698 12.5225 49.914 12.306C49.3581 12.0895 48.7644 11.9831 48.1681 12Z" stroke="#8C0384" stroke-width="3.58939" stroke-linecap="round" stroke-linejoin="round"/>
</svg>
