<svg width="70" height="70" viewBox="0 0 70 70" fill="none" xmlns="http://www.w3.org/2000/svg">
<rect width="70" height="70" rx="13" fill="white"/>
<path d="M41.3222 25.7556C41.3222 29.5853 38.3447 32.6889 34.6734 32.6889C31.006 32.6889 28.0333 29.5845 28.0333 25.7556C28.0333 21.9267 31.006 18.8223 34.6734 18.8223C38.3447 18.8223 41.3222 21.9267 41.3222 25.7556Z" fill="#D91656"/>
<path d="M34.6845 9C31.504 9 27.0615 10.2634 23.8435 13.4702L27.6654 20.4091C28.5005 19.3498 29.5663 18.4937 30.7824 17.9055C31.9984 17.3173 33.3327 17.0124 34.6845 17.0139C37.5659 17.0139 40.1299 18.3703 41.7634 20.4796L45.512 13.3108C42.7272 10.2784 37.7333 9 34.6845 9ZM37.5167 14.0952H35.7374V15.8667H33.5999V14.0952H31.8205V11.966H33.5999V10.1871H35.7374V11.966H37.5167V14.0952ZM25.6429 44.8003H27.403L24.889 53.387H44.5324L42.03 44.8003H43.7918L46.3101 53.387H52.0904L48.1452 40.3775C47.5288 38.23 44.8265 34.4488 40.1632 34.3342L29.4423 34.3251C24.6732 34.3484 21.9143 38.2034 21.2903 40.3766L17.2685 53.3862H23.1305L25.6429 44.8003ZM8.96667 56.1247H60.3889V61H8.96667V56.1247Z" fill="#D91656"/>
</svg>
