<svg width="99" height="99" viewBox="0 0 99 99" fill="none" xmlns="http://www.w3.org/2000/svg">
<g style="mix-blend-mode:screen">
<path d="M36.8372 49.4999C36.8372 48.584 37.2011 47.7056 37.8487 47.058C38.4964 46.4103 39.3748 46.0465 40.2907 46.0465H46.0465V40.2906C46.0465 39.3747 46.4104 38.4963 47.058 37.8487C47.7057 37.201 48.5841 36.8372 49.5 36.8372C50.4159 36.8372 51.2943 37.201 51.942 37.8487C52.5896 38.4963 52.9535 39.3747 52.9535 40.2906V46.0465H58.7093C59.6252 46.0465 60.5036 46.4103 61.1513 47.058C61.7989 47.7056 62.1628 48.584 62.1628 49.4999C62.1628 50.4159 61.7989 51.2943 61.1513 51.9419C60.5036 52.5896 59.6252 52.9534 58.7093 52.9534H52.9535V58.7092C52.9535 59.6252 52.5896 60.5036 51.942 61.1512C51.2943 61.7989 50.4159 62.1627 49.5 62.1627C48.5841 62.1627 47.7057 61.7989 47.058 61.1512C46.4104 60.5036 46.0465 59.6252 46.0465 58.7092V52.9534H40.2907C39.3748 52.9534 38.4964 52.5896 37.8487 51.9419C37.2011 51.2943 36.8372 50.4159 36.8372 49.4999Z" fill="#8C0384"/>
<path fill-rule="evenodd" clip-rule="evenodd" d="M49.5 0C22.1622 0 0 22.1622 0 49.5C0 76.8378 22.1622 99 49.5 99C76.8378 99 99 76.8378 99 49.5C99 22.1622 76.8378 0 49.5 0ZM46.0465 7.04512C35.9761 7.86387 26.5246 12.2359 19.3802 19.3802C12.2359 26.5246 7.86387 35.9761 7.04512 46.0465H17.2674C18.1834 46.0465 19.0618 46.4104 19.7094 47.058C20.3571 47.7057 20.7209 48.5841 20.7209 49.5C20.7209 50.4159 20.3571 51.2943 19.7094 51.942C19.0618 52.5896 18.1834 52.9535 17.2674 52.9535H7.04512C7.86387 63.0239 12.2359 72.4754 19.3802 79.6198C26.5246 86.7641 35.9761 91.1361 46.0465 91.9549V81.7326C46.0465 80.8166 46.4104 79.9382 47.058 79.2906C47.7057 78.6429 48.5841 78.2791 49.5 78.2791C50.4159 78.2791 51.2943 78.6429 51.942 79.2906C52.5896 79.9382 52.9535 80.8166 52.9535 81.7326V91.9549C63.0239 91.1361 72.4754 86.7641 79.6198 79.6198C86.7641 72.4754 91.1361 63.0239 91.9549 52.9535H81.7326C80.8166 52.9535 79.9382 52.5896 79.2906 51.942C78.6429 51.2943 78.2791 50.4159 78.2791 49.5C78.2791 48.5841 78.6429 47.7057 79.2906 47.058C79.9382 46.4104 80.8166 46.0465 81.7326 46.0465H91.9549C91.1361 35.9761 86.7641 26.5246 79.6198 19.3802C72.4754 12.2359 63.0239 7.86387 52.9535 7.04512V17.2674C52.9535 18.1834 52.5896 19.0618 51.942 19.7094C51.2943 20.3571 50.4159 20.7209 49.5 20.7209C48.5841 20.7209 47.7057 20.3571 47.058 19.7094C46.4104 19.0618 46.0465 18.1834 46.0465 17.2674V7.04512Z" fill="#8C0384"/>
</g>
</svg>
