<svg width="100" height="100" viewBox="0 0 100 100" fill="none" xmlns="http://www.w3.org/2000/svg">
<g style="mix-blend-mode:screen">
<path d="M4 31.5371C4.50358 21.3686 6.00947 15.0255 10.5223 10.5223C15.0255 6.00947 21.3686 4.50358 31.5371 4M96 31.5371C95.4964 21.3686 93.9905 15.0255 89.4777 10.5223C84.9745 6.00947 78.6314 4.50358 68.4629 4M68.4629 96C78.6314 95.4964 84.9745 93.9905 89.4777 89.4777C93.9905 84.9745 95.4964 78.6314 96 68.4629M31.5371 96C21.3686 95.4964 15.0255 93.9905 10.5223 89.4777C6.00947 84.9745 4.50358 78.6314 4 68.4629M86.9695 46.6977C88.1461 48.1697 88.7368 48.9105 88.7368 50C88.7368 51.0895 88.1461 51.8303 86.9695 53.3023C81.6771 59.9263 68.1627 74.2105 50 74.2105C31.8373 74.2105 18.3229 59.9263 13.0305 53.3023C11.8539 51.8303 11.2632 51.0895 11.2632 50C11.2632 48.9105 11.8539 48.1697 13.0305 46.6977C18.3229 40.0737 31.8373 25.7895 50 25.7895C68.1627 25.7895 81.6771 40.0737 86.9695 46.6977Z" stroke="#00D27A" stroke-width="7.26316" stroke-linecap="round" stroke-linejoin="round"/>
</g>
<g style="mix-blend-mode:screen">
<path d="M59.6842 49.9999C59.6842 47.4315 58.6639 44.9683 56.8478 43.1521C55.0316 41.336 52.5684 40.3157 50 40.3157C47.4316 40.3157 44.9684 41.336 43.1522 43.1521C41.3361 44.9683 40.3158 47.4315 40.3158 49.9999C40.3158 52.5683 41.3361 55.0315 43.1522 56.8477C44.9684 58.6638 47.4316 59.6841 50 59.6841C52.5684 59.6841 55.0316 58.6638 56.8478 56.8477C58.6639 55.0315 59.6842 52.5683 59.6842 49.9999Z" stroke="#00D27A" stroke-width="7.26316" stroke-linecap="round" stroke-linejoin="round"/>
</g>
</svg>
