<svg width="70" height="70" viewBox="0 0 70 70" fill="none" xmlns="http://www.w3.org/2000/svg">
<rect width="70" height="70" rx="13" fill="white"/>
<path fill-rule="evenodd" clip-rule="evenodd" d="M19.6242 55.237V38.7387H27.0632C30.213 39.3019 33.3627 41.0089 36.5082 42.9889H42.2705C44.87 43.1449 46.2521 45.7964 43.7089 47.5337C41.6899 49.0198 39.021 48.9331 36.2829 48.6862C34.3939 48.5952 34.3159 51.1297 36.2829 51.1384C36.9674 51.1947 37.7083 51.0301 38.3582 51.0301C41.7722 51.0301 44.584 50.3759 46.3041 47.6767L47.1706 45.6621L55.7577 41.4075C60.0512 39.9951 63.123 44.4836 59.9386 47.6117C53.9541 51.9857 47.5528 55.7589 40.8277 58.8763C36.0879 61.7575 31.3524 61.6578 26.6213 58.8763L19.6242 55.237ZM37.431 12.8647C39.7013 10.5034 41.287 8.45847 44.7963 8.05555C51.3255 7.31901 57.3911 14.0345 54.068 20.6459L54.0073 20.7629H52.7076V17.9987C52.7045 17.0736 52.3353 16.1873 51.6808 15.5335C51.3563 15.2071 50.97 14.9485 50.5445 14.773C50.119 14.5974 49.6628 14.5084 49.2025 14.511H45.4246C44.9647 14.512 44.5095 14.6036 44.085 14.7805C43.6605 14.9574 43.2751 15.2162 42.9507 15.5422C42.6253 15.8668 42.3672 16.2524 42.191 16.6769C42.0148 17.1014 41.924 17.5565 41.9239 18.0161V20.7759H39.1597C38.2304 20.7795 37.3406 21.1519 36.6858 21.8114C36.3603 22.1359 36.102 22.5214 35.9258 22.946C35.7496 23.3705 35.6589 23.8256 35.659 24.2853V28.0676C35.659 28.5279 35.7497 28.9837 35.9258 29.4089C36.1019 29.8342 36.3601 30.2205 36.6856 30.546C37.0111 30.8715 37.3975 31.1297 37.8227 31.3058C38.248 31.482 38.7037 31.5726 39.164 31.5726H41.9239V33.9988L37.4353 38.4267L33.3627 34.5058C28.4626 29.7876 20.4734 23.852 20.2091 16.491C20.0272 11.3396 24.0911 8.03822 28.7702 8.09454C32.9511 8.15086 34.7102 10.2305 37.4353 12.8603L37.431 12.8647ZM8 37.1486H17.3886V56.9094H8V37.1486Z" fill="#00A551"/>
<path fill-rule="evenodd" clip-rule="evenodd" d="M45.4246 16.7163H49.2025C49.5473 16.7163 49.8779 16.8532 50.1216 17.097C50.3654 17.3408 50.5023 17.6714 50.5023 18.0161V22.9985H55.4847C55.8295 22.9985 56.1601 23.1354 56.4038 23.3792C56.6476 23.6229 56.7845 23.9535 56.7845 24.2983V28.0762C56.7845 28.421 56.6476 28.7516 56.4038 28.9953C56.1601 29.2391 55.8295 29.376 55.4847 29.376H50.485V34.2025C50.485 34.5472 50.348 34.8778 50.1043 35.1215C49.8605 35.3653 49.5299 35.5022 49.1852 35.5022H45.4246C45.0798 35.5022 44.7492 35.3653 44.5055 35.1215C44.2617 34.8778 44.1248 34.5472 44.1248 34.2025V29.3284H39.1597C38.815 29.3284 38.4844 29.1914 38.2406 28.9477C37.9969 28.7039 37.8599 28.3733 37.8599 28.0286V24.2636C37.8599 23.9189 37.9969 23.5883 38.2406 23.3445C38.4844 23.1008 38.815 22.9638 39.1597 22.9638H44.1421V17.9987C44.1421 17.654 44.2791 17.3234 44.5228 17.0797C44.7666 16.8359 45.0972 16.699 45.4419 16.699L45.4246 16.7163Z" fill="#00A551"/>
</svg>
