<svg width="231" height="231" viewBox="0 0 231 231" fill="none" xmlns="http://www.w3.org/2000/svg">
<mask id="path-1-outside-1_39_85" maskUnits="userSpaceOnUse" x="40.7469" y="28.4563" width="90" height="41" fill="black">
<rect fill="white" x="40.7469" y="28.4563" width="90" height="41"/>
<path d="M84.4256 49.3277C74.1306 49.7241 64.8237 53.3983 59.8478 58.3801C59.2981 58.9294 58.6456 59.3651 57.9275 59.6623C57.2094 59.9594 56.4398 60.1122 55.6627 60.1119C54.8855 60.1117 54.1161 59.9583 53.3982 59.6607C52.6803 59.363 52.0281 58.9269 51.4788 58.3772C50.9294 57.8274 50.4938 57.1749 50.1966 56.4568C49.8995 55.7387 49.7467 54.9691 49.7469 54.192C49.7472 53.4149 49.9006 52.6454 50.1982 51.9275C50.4959 51.2096 50.932 50.5574 51.4817 50.0081C59.1556 42.3342 71.6515 37.9796 83.9641 37.5003C96.3594 37.0211 109.891 40.4113 119.369 49.8897C120.479 50.9999 121.102 52.5054 121.101 54.0749C121.1 55.6444 120.476 57.1494 119.366 58.2588C118.256 59.3682 116.751 59.9912 115.181 59.9906C113.612 59.9901 112.107 59.3661 110.997 58.2559C104.548 51.8008 94.6436 48.9253 84.4256 49.3217"/>
</mask>
<path d="M84.4256 49.3277C74.1306 49.7241 64.8237 53.3983 59.8478 58.3801C59.2981 58.9294 58.6456 59.3651 57.9275 59.6623C57.2094 59.9594 56.4398 60.1122 55.6627 60.1119C54.8855 60.1117 54.1161 59.9583 53.3982 59.6607C52.6803 59.363 52.0281 58.9269 51.4788 58.3772C50.9294 57.8274 50.4938 57.1749 50.1966 56.4568C49.8995 55.7387 49.7467 54.9691 49.7469 54.192C49.7472 53.4149 49.9006 52.6454 50.1982 51.9275C50.4959 51.2096 50.932 50.5574 51.4817 50.0081C59.1556 42.3342 71.6515 37.9796 83.9641 37.5003C96.3594 37.0211 109.891 40.4113 119.369 49.8897C120.479 50.9999 121.102 52.5054 121.101 54.0749C121.1 55.6444 120.476 57.1494 119.366 58.2588C118.256 59.3682 116.751 59.9912 115.181 59.9906C113.612 59.9901 112.107 59.3661 110.997 58.2559C104.548 51.8008 94.6436 48.9253 84.4256 49.3217" fill="white"/>
<path d="M59.8478 58.3801L66.2096 64.7463L66.2156 64.7403L59.8478 58.3801ZM51.4817 50.0081L57.8434 56.3743L57.8457 56.372L51.4817 50.0081ZM83.9641 37.5003L83.6163 28.507L83.614 28.5071L83.9641 37.5003ZM119.369 49.8897L125.735 43.528L125.733 43.5258L119.369 49.8897ZM110.997 58.2559L104.63 64.6169L104.631 64.6176L110.997 58.2559ZM84.0793 40.3343C72.2448 40.79 60.509 44.9827 53.4801 52.0199L66.2156 64.7403C69.1384 61.814 76.0165 58.6581 84.7718 58.321L84.0793 40.3343ZM53.4861 52.0139C53.7724 51.7278 54.1123 51.5009 54.4863 51.3461L61.3687 67.9784C63.1789 67.2293 64.8238 66.1311 66.2096 64.7463L53.4861 52.0139ZM54.4863 51.3461C54.8603 51.1914 55.2611 51.1118 55.6659 51.1119L55.6595 69.1119C57.6185 69.1126 59.5585 68.7275 61.3687 67.9784L54.4863 51.3461ZM55.6659 51.1119C56.0706 51.1121 56.4714 51.1919 56.8453 51.347L49.9511 67.9744C51.7608 68.7247 53.7005 69.1112 55.6595 69.1119L55.6659 51.1119ZM56.8453 51.347C57.2192 51.502 57.5589 51.7291 57.845 52.0154L45.1125 64.7389C46.4973 66.1246 48.1414 67.224 49.9511 67.9744L56.8453 51.347ZM57.845 52.0154C58.1311 52.3018 58.358 52.6416 58.5127 53.0156L41.8805 59.898C42.6295 61.7082 43.7278 63.3531 45.1125 64.7389L57.845 52.0154ZM58.5127 53.0156C58.6675 53.3896 58.7471 53.7904 58.7469 54.1952L40.7469 54.1888C40.7463 56.1478 41.1314 58.0878 41.8805 59.898L58.5127 53.0156ZM58.7469 54.1952C58.7468 54.5999 58.6669 55.0007 58.5119 55.3746L41.8845 48.4804C41.1342 50.2901 40.7476 52.2298 40.7469 54.1888L58.7469 54.1952ZM58.5119 55.3746C58.3569 55.7485 58.1297 56.0882 57.8434 56.3743L45.12 43.6419C43.7343 45.0266 42.6349 46.6708 41.8845 48.4804L58.5119 55.3746ZM57.8457 56.372C63.4636 50.7541 73.5305 46.9132 84.3141 46.4935L83.614 28.5071C69.7725 29.0459 54.8476 33.9143 45.1178 43.6441L57.8457 56.372ZM84.3118 46.4936C95.0615 46.078 105.829 49.0772 113.005 56.2537L125.733 43.5258C113.953 31.7454 97.6574 27.9641 83.6163 28.507L84.3118 46.4936ZM113.003 56.2515C112.425 55.6732 112.101 54.8892 112.101 54.0717L130.101 54.0781C130.102 50.1216 128.532 46.3266 125.735 43.528L113.003 56.2515ZM112.101 54.0717C112.101 53.2542 112.426 52.4704 113.005 51.8926L125.728 64.625C128.527 61.8284 130.1 58.0346 130.101 54.0781L112.101 54.0717ZM113.005 51.8926C113.583 51.3148 114.367 50.9903 115.184 50.9906L115.178 68.9906C119.134 68.992 122.929 67.4217 125.728 64.625L113.005 51.8926ZM115.184 50.9906C116.002 50.9909 116.786 51.3159 117.363 51.8942L104.631 64.6176C107.428 67.4162 111.221 68.9892 115.178 68.9906L115.184 50.9906ZM117.364 51.8948C108.621 43.1435 95.9574 39.8676 84.0767 40.3285L84.7744 58.315C93.3298 57.9831 100.475 60.4581 104.63 64.6169L117.364 51.8948Z" fill="#00D27A" mask="url(#path-1-outside-1_39_85)"/>
<path d="M85.9163 167.333C101.811 167.333 116.645 162.776 129.181 154.899L128.816 156.997L128.416 159.298L130.067 160.95L174.525 205.408L177.707 208.59L180.889 205.408L205.408 180.889L208.59 177.707L205.408 174.525L160.95 130.067L159.298 128.416L156.997 128.816L154.905 129.18C163.006 116.283 167.355 101.293 167.333 85.9096C167.329 40.9459 130.881 4.5 85.9163 4.5C40.9495 4.5 4.5 40.9495 4.5 85.9163C4.5 130.883 40.9495 167.333 85.9163 167.333ZM140.583 85.9163C140.583 116.109 116.109 140.583 85.9163 140.583C55.724 140.583 31.2499 116.109 31.2499 85.9163C31.2499 55.724 55.724 31.2499 85.9163 31.2499C116.109 31.2499 140.583 55.724 140.583 85.9163Z" fill="white" stroke="#00D27A" stroke-width="9"/>
<path d="M182.891 207.409L179.709 210.591L182.891 213.773L190.912 221.794C190.912 221.794 190.912 221.794 190.912 221.795C197.18 228.07 207.349 228.067 213.62 221.796L221.794 213.622C228.07 207.354 228.067 197.184 221.796 190.914L213.774 182.891L210.592 179.709L207.41 182.891L182.891 207.409Z" fill="white" stroke="#00D27A" stroke-width="9"/>
</svg>
