<svg width="196" height="196" viewBox="0 0 196 196" fill="none" xmlns="http://www.w3.org/2000/svg">
<path d="M175.905 64.267L179.16 61.2084C180.242 62.3602 181.086 63.7142 181.642 65.1926C189.567 84.8295 190.469 106.601 184.193 126.827C177.911 147.072 164.824 164.523 147.15 176.225C129.475 187.927 108.299 193.16 87.2085 191.038C66.1178 188.916 46.4088 179.569 31.4201 164.58C16.4314 149.591 7.08422 129.882 4.96192 108.791C2.83962 87.7007 8.07261 66.5246 19.7745 48.8501C31.4765 31.1755 48.928 18.0891 69.173 11.8072C89.4181 5.52543 111.212 6.43445 130.864 14.3804L130.908 14.398L130.951 14.4166C133.835 15.6537 136.119 17.9721 137.314 20.8743C138.508 23.7765 138.517 27.0312 137.339 29.94C136.161 32.8488 133.889 35.1798 131.012 36.4329C128.135 37.6859 124.881 37.7612 121.949 36.6424L121.908 36.6271L121.868 36.611C112.581 32.8622 102.579 31.2136 92.5796 31.7835C82.5801 32.3533 72.8304 35.1275 64.0287 39.9072C55.2271 44.6868 47.5913 51.3538 41.6684 59.4305C35.7455 67.5072 31.682 76.7938 29.7689 86.6251C27.8559 96.4564 28.1406 106.589 30.6027 116.297C33.0649 126.006 37.6435 135.05 44.0106 142.781C50.3777 150.512 58.3758 156.74 67.4319 161.018C76.4877 165.296 86.3773 167.518 96.3925 167.525L175.905 64.267ZM175.905 64.267L179.16 61.2084C178.061 60.0385 176.738 59.1011 175.269 58.452C173.801 57.8028 172.217 57.455 170.612 57.4293C169.007 57.4035 167.413 57.7003 165.925 58.3021L167.611 62.474M175.905 64.267L167.611 62.474M167.611 62.474L165.925 58.3021C164.436 58.9038 163.084 59.7983 161.948 60.9324C160.812 62.0666 159.915 63.4173 159.31 64.9045C158.706 66.3917 158.406 67.9851 158.429 69.5903C158.451 71.17 158.786 72.7295 159.412 74.1791C163.568 84.4775 165.136 95.6382 163.978 106.684C162.817 117.748 158.957 128.359 152.736 137.582C146.515 146.806 138.123 154.36 128.299 159.581C118.475 164.802 107.519 167.53 96.3939 167.525L167.611 62.474Z" fill="white" stroke="#8C0384" stroke-width="9"/>
<path d="M158.163 98.7868L158.163 98.7855C158.163 86.2533 154.375 74.5926 147.884 64.8995L148.765 64.0192L158.375 64.0192L158.379 64.0192C163.475 64.0147 168.36 61.9869 171.961 58.3817C171.962 58.381 171.963 58.3804 171.963 58.3797L188.029 42.312L188.031 42.31C189.688 40.651 190.816 38.5383 191.273 36.2387L186.859 35.362L191.273 36.2387C191.729 33.9391 191.495 31.5557 190.598 29.3894C189.701 27.2232 188.182 25.3713 186.234 24.0676L186.233 24.0676C184.285 22.764 181.993 22.067 179.649 22.065L179.645 22.065L173.937 22.065L173.937 16.3558L173.937 16.3518C173.935 14.0073 173.238 11.7159 171.935 9.76705C170.631 7.81824 168.779 6.29932 166.613 5.40227C164.447 4.50524 162.064 4.2703 159.764 4.72721C157.464 5.18408 155.352 6.31229 153.693 7.96921L153.69 7.97216L137.625 24.0487C137.625 24.0491 137.624 24.0495 137.624 24.0499C134.022 27.6486 131.994 32.5295 131.986 37.6213L131.986 37.6283L131.986 47.2378L131.109 48.1136C120.828 41.235 108.667 37.6301 96.237 37.8316C82.4827 38.0545 69.2085 42.9251 58.5735 51.6509C47.9385 60.3767 40.5683 72.4444 37.6617 85.891C34.7551 99.3377 36.483 113.372 42.5643 125.712C48.6457 138.052 58.7228 147.971 71.1567 153.856C83.5907 159.742 97.6498 161.246 111.047 158.125C124.445 155.005 136.392 147.443 144.947 136.669C153.501 125.895 158.159 112.544 158.163 98.7868ZM150.922 37.3596L150.927 37.3546L155.251 33.03C155.573 34.9476 156.484 36.7326 157.877 38.1258C159.272 39.5211 161.06 40.433 162.981 40.7534L158.657 45.0778L158.653 45.0828C158.615 45.1208 158.57 45.1509 158.52 45.1715C158.471 45.192 158.418 45.2026 158.364 45.2026L150.802 45.2026L150.802 37.6457C150.803 37.5382 150.846 37.4354 150.922 37.3596ZM97.2259 136.006C91.3857 136.004 85.6279 134.628 80.4181 131.988C75.2083 129.349 70.6928 125.52 67.2367 120.812C63.7806 116.103 61.4809 110.647 60.5238 104.885C59.5667 99.1231 59.979 93.2166 61.7273 87.6434C63.4756 82.0703 66.5108 76.9869 70.5875 72.8044C74.6642 68.6219 79.6678 65.4576 85.1938 63.5676C90.7197 61.6776 96.6128 61.1147 102.397 61.9246C106.369 62.4808 110.213 63.6738 113.784 65.4469L103.709 75.5292C99.3629 74.3183 94.7419 74.3447 90.3763 75.6387C85.0065 77.2302 80.3576 80.6402 77.2263 85.2839C74.095 89.9277 72.6763 95.516 73.2133 101.091C73.7503 106.666 76.2096 111.881 80.1697 115.842C84.1298 119.802 89.3442 122.262 94.9191 122.799C100.494 123.336 106.082 121.917 110.725 118.785C115.369 115.654 118.778 111.004 120.369 105.634C121.663 101.269 121.689 96.6479 120.479 92.3018L130.568 82.2306C132.762 86.6498 134.064 91.4784 134.377 96.4391C134.806 103.226 133.367 110 130.218 116.027C127.068 122.054 122.327 127.102 116.511 130.624C110.695 134.147 104.025 136.008 97.2259 136.006Z" fill="white" stroke="#8C0384" stroke-width="9"/>
</svg>
