<svg width="70" height="70" viewBox="0 0 70 70" fill="none" xmlns="http://www.w3.org/2000/svg">
<rect width="70" height="70" rx="13" fill="white"/>
<path d="M25 44.1875H23.2188C23.2188 44.8109 23.5447 45.389 24.0781 45.7115C24.6116 46.0343 25.2749 46.0545 25.827 45.7652L25 44.1875ZM8.96875 57.25C8.96875 58.2337 9.76625 59.0312 10.75 59.0312C11.7337 59.0312 12.5312 58.2337 12.5312 57.25H8.96875ZM32.7016 40.15L33.5286 41.7277L33.5949 41.693L33.6581 41.6529L32.7016 40.15ZM36.3793 45.9816L37.2158 47.5543L37.2707 47.5251L37.3234 47.4921L36.3793 45.9816ZM26.8151 51.0686L25.9787 49.4961L25.9238 49.5253L25.8711 49.5581L26.8151 51.0686ZM19.4216 44.4913C18.9335 43.6372 17.8454 43.3403 16.9913 43.8284C16.1371 44.3165 15.8404 45.4047 16.3284 46.2587L19.4216 44.4913ZM26.7812 52.5C26.7812 51.5163 25.9837 50.7188 25 50.7188C24.0163 50.7188 23.2188 51.5163 23.2188 52.5H26.7812ZM23.2188 57.25C23.2188 58.2337 24.0163 59.0312 25 59.0312C25.9837 59.0312 26.7812 58.2337 26.7812 57.25H23.2188ZM36.5598 38.4811L35.6034 39.984L38.609 41.8966L39.5652 40.3939L36.5598 38.4811ZM47.8777 27.3313C48.4059 26.5014 48.1612 25.4004 47.3314 24.8722C46.5014 24.3441 45.4003 24.5887 44.8723 25.4187L47.8777 27.3313ZM18.4688 15.6875C18.4688 16.6712 19.2663 17.4688 20.25 17.4688C21.2337 17.4688 22.0312 16.6712 22.0312 15.6875H18.4688ZM51.125 31.7188C50.1413 31.7188 49.3438 32.5163 49.3438 33.5C49.3438 34.4837 50.1413 35.2812 51.125 35.2812V31.7188ZM29.75 17.4688C28.7663 17.4688 27.9688 18.2663 27.9688 19.25C27.9688 20.2337 28.7663 21.0312 29.75 21.0312V17.4688ZM48.75 21.0312C49.7337 21.0312 50.5312 20.2337 50.5312 19.25C50.5312 18.2663 49.7337 17.4688 48.75 17.4688V21.0312ZM29.75 24.5938C28.7663 24.5938 27.9688 25.3913 27.9688 26.375C27.9688 27.3587 28.7663 28.1562 29.75 28.1562V24.5938ZM39.25 28.1562C40.2337 28.1562 41.0312 27.3587 41.0312 26.375C41.0312 25.3913 40.2337 24.5938 39.25 24.5938V28.1562ZM20.8438 26.375C20.8438 28.0146 19.5146 29.3438 17.875 29.3438V32.9062C21.4821 32.9062 24.4062 29.9821 24.4062 26.375H20.8438ZM17.875 29.3438C16.2354 29.3438 14.9062 28.0146 14.9062 26.375H11.3438C11.3438 29.9821 14.2679 32.9062 17.875 32.9062V29.3438ZM14.9062 26.375C14.9062 24.7354 16.2354 23.4062 17.875 23.4062V19.8438C14.2679 19.8438 11.3438 22.7679 11.3438 26.375H14.9062ZM17.875 23.4062C19.5146 23.4062 20.8438 24.7354 20.8438 26.375H24.4062C24.4062 22.7679 21.4821 19.8438 17.875 19.8438V23.4062ZM26.7812 44.1875V43H23.2188V44.1875H26.7812ZM8.96875 43V57.25H12.5312V43H8.96875ZM25.827 45.7652L33.5286 41.7277L31.8747 38.5725L24.173 42.6098L25.827 45.7652ZM35.5429 44.4091L25.9787 49.4961L27.6516 52.6413L37.2158 47.5543L35.5429 44.4091ZM21.72 48.5136L19.4216 44.4913L16.3284 46.2587L18.6269 50.281L21.72 48.5136ZM33.6581 41.6529C34.4487 41.1496 35.4987 41.3976 35.9811 42.2013L39.0358 40.3683C37.5224 37.846 34.2269 37.0682 31.7452 38.6473L33.6581 41.6529ZM25.8711 49.5581C24.4418 50.4516 22.5563 49.977 21.72 48.5136L18.6269 50.281C20.4667 53.5006 24.6147 54.5444 27.7592 52.5791L25.8711 49.5581ZM12.5312 43C12.5312 40.0488 14.9237 37.6562 17.875 37.6562V34.0938C12.9562 34.0938 8.96875 38.0811 8.96875 43H12.5312ZM35.9811 42.2013C36.4482 42.98 36.2055 43.9897 35.4353 44.4711L37.3234 47.4921C39.7407 45.9813 40.5023 42.8126 39.0358 40.3683L35.9811 42.2013ZM26.7812 43C26.7812 38.0811 22.7938 34.0938 17.875 34.0938V37.6562C20.8263 37.6562 23.2188 40.0488 23.2188 43H26.7812ZM23.2188 52.5V57.25H26.7812V52.5H23.2188ZM39.5652 40.3939L47.8777 27.3313L44.8723 25.4187L36.5598 38.4811L39.5652 40.3939ZM22.0312 15.6875V14.5H18.4688V15.6875H22.0312ZM25 11.5312H53.5V7.96875H25V11.5312ZM56.4688 14.5V28.75H60.0312V14.5H56.4688ZM53.5 31.7188H51.125V35.2812H53.5V31.7188ZM56.4688 28.75C56.4688 30.3897 55.1397 31.7188 53.5 31.7188V35.2812C57.1072 35.2812 60.0312 32.3571 60.0312 28.75H56.4688ZM53.5 11.5312C55.1397 11.5312 56.4688 12.8604 56.4688 14.5H60.0312C60.0312 10.8929 57.1072 7.96875 53.5 7.96875V11.5312ZM22.0312 14.5C22.0312 12.8604 23.3604 11.5312 25 11.5312V7.96875C21.3929 7.96875 18.4688 10.8929 18.4688 14.5H22.0312ZM29.75 21.0312H48.75V17.4688H29.75V21.0312ZM29.75 28.1562H39.25V24.5938H29.75V28.1562Z" fill="black"/>
</svg>
