<svg width="98" height="98" viewBox="0 0 98 98" fill="none" xmlns="http://www.w3.org/2000/svg">
<rect width="98" height="98" fill="#8C0384"/>
<path d="M48.5537 17H49.4462C51.1837 17.105 52.9 17.6625 54.3275 18.6662C56.4325 20.1113 57.9 22.4475 58.2687 24.9763C58.5987 27.2088 58.0775 29.4687 57.3187 31.5612C56.61 33.4525 55.6237 35.2588 54.2737 36.77C53.2775 37.8763 52.0475 38.835 50.6025 39.26C49.215 39.6875 47.6775 39.5175 46.3912 38.8612C44.505 37.9112 43.1075 36.2275 42.0437 34.4412C41.075 32.7887 40.3787 30.9812 39.9512 29.115C39.635 27.6837 39.505 26.19 39.7687 24.7387C40.1587 22.475 41.4312 20.3863 43.2462 18.98C44.755 17.79 46.6387 17.11 48.5537 17Z" fill="white"/>
<path d="M20.6325 34.1075C23.5 28.6075 28.0087 23.9712 33.4487 20.985C34.0487 22.0787 34.6562 23.1675 35.2612 24.2587C32.3712 25.8662 29.76 27.9775 27.6012 30.485C23.9837 34.6575 21.64 39.9175 20.9675 45.4C20.3712 50.1737 21.0225 55.0962 22.8462 59.55C21.6925 60.0312 20.535 60.505 19.3762 60.975C17.9025 57.3987 17.115 53.5525 17 49.6887V48.5225C17.0587 43.5212 18.3062 38.5362 20.6325 34.1075Z" fill="white"/>
<path d="M64.5563 20.9813C69.7025 23.8188 74.0238 28.1213 76.8988 33.2463C79.5225 37.8926 80.9388 43.2038 81 48.5388V49.7026C80.8763 53.5613 80.0938 57.4026 78.6225 60.9751C77.4688 60.4951 76.3113 60.0226 75.1538 59.5488C77.6013 53.5901 77.9175 46.7851 76.01 40.6288C73.9188 33.7313 69.0575 27.7313 62.74 24.2588C63.3438 23.1651 63.9525 22.0751 64.5563 20.9813Z" fill="white"/>
<path d="M36.0962 43.0937C37.7224 41.8349 39.4724 40.7324 40.9999 39.3462C42.6099 41.1212 44.6949 42.5487 47.0674 43.0449C49.2937 43.5287 51.6737 43.1299 53.6612 42.0299C54.9262 41.3462 56.0324 40.4012 57.0074 39.3499C58.5537 40.7562 60.3362 41.8649 61.9787 43.1512C63.8912 44.6324 65.6374 46.3799 66.8737 48.4762C68.3587 50.9474 69.1324 53.7899 69.4399 56.6424C69.6412 58.3849 69.6299 60.1412 69.6249 61.8924C68.2899 61.9662 66.9537 62.0887 65.6174 61.9849C62.3549 61.7787 59.1874 60.5924 56.5137 58.7287C53.3687 56.5562 50.8674 53.5487 48.9999 50.2337C46.9262 53.9124 44.0637 57.2262 40.4224 59.4212C37.9212 60.9362 35.0512 61.8562 32.1249 61.9999C30.8749 62.0787 29.6237 61.9574 28.3762 61.8924C28.3162 58.4837 28.4824 55.0087 29.6099 51.7612C30.2749 49.7999 31.2924 47.9574 32.6199 46.3687C33.6462 45.1462 34.8362 44.0699 36.0962 43.0937Z" fill="white"/>
<path d="M45.1437 60.6463C46.5513 59.4563 47.7988 58.095 49.0013 56.7025C50.81 58.8238 52.7863 60.8463 55.1538 62.3463C56.215 63.0375 57.35 63.6075 58.5138 64.1025C58.675 64.145 58.7088 64.3238 58.7813 64.45C55.1688 65.865 51.8675 68.0238 49.0125 70.6413C46.1613 68.01 42.8713 65.82 39.25 64.405C39.3088 64.2925 39.3313 64.1388 39.4825 64.11C41.5325 63.2538 43.4537 62.09 45.1437 60.6463Z" fill="white"/>
<path d="M20.6225 66.2775C24.8387 65.5475 29.2013 65.5488 33.385 66.4925C37.51 67.4 41.4237 69.2588 44.7262 71.8938C46.2887 73.1388 47.7138 74.5525 49.0013 76.0775C52.2225 72.2263 56.4563 69.2138 61.2 67.545C66.355 65.7013 71.9875 65.3638 77.37 66.27C77.1387 67.9638 76.8787 69.67 76.2637 71.275C75.435 73.5538 74.0475 75.6175 72.2537 77.2488C75.17 77.2513 78.085 77.25 81 77.25V81H17V77.25C19.885 77.25 22.7688 77.2513 25.6538 77.2488C22.6588 74.4013 21.0387 70.3388 20.6225 66.2775Z" fill="white"/>
</svg>
