<svg width="98" height="98" viewBox="0 0 98 98" fill="none" xmlns="http://www.w3.org/2000/svg">
<rect width="98" height="98" fill="#D91656"/>
<path d="M14.75 43.7241L14.75 43.7203L14.75 42.7871V42.7822L14.75 42.7822C14.8438 37.9978 16.1414 33.2382 18.529 29.0874C21.1935 24.4294 25.1899 20.5383 29.9444 18.0408C34.2635 15.7605 39.176 14.6172 44.059 14.7623C49.1602 14.8839 54.2155 16.4221 58.5228 19.1553C62.0557 21.3846 65.0727 24.4124 67.3146 27.9336C69.933 32.0337 71.4724 36.813 71.7418 41.6695C71.9808 45.7238 71.3218 49.8221 69.8484 53.6034C67.9508 58.5001 64.6644 62.8426 60.4745 66.0065C55.4645 69.8107 49.1658 71.8795 42.8746 71.774C42.8745 71.774 42.8743 71.774 42.8741 71.774L42.8783 71.524C38.105 71.4638 33.3578 70.1563 29.2166 67.786L14.75 43.7241ZM14.75 43.7241C14.8293 48.9046 16.3582 54.0513 19.1235 58.4329L14.75 43.7241ZM49.0178 18.807C47.1036 20.1489 45.1895 21.4906 43.2704 22.8259C42.3318 22.166 41.392 21.51 40.4525 20.8543C39.1857 19.97 37.9196 19.0863 36.658 18.1942C40.9715 17.0546 45.5774 17.0462 49.8876 18.1974C49.5977 18.4006 49.3078 18.6038 49.0178 18.807ZM26.403 36.4546C25.3994 33.1807 24.3984 29.9057 23.4011 26.6306C26.124 23.3714 29.6569 20.783 33.6062 19.222C35.2259 20.3676 36.8536 21.5046 38.4808 22.6413C39.6465 23.4556 40.8119 24.2697 41.9739 25.0866C41.9739 25.62 41.9737 26.1534 41.9736 26.6869C41.9733 27.7971 41.9731 28.9075 41.9738 30.0177C38.1611 32.6934 34.3447 35.3628 30.528 38.031C29.3349 37.5704 28.1401 37.1157 26.9464 36.6614C26.7653 36.5925 26.5841 36.5235 26.403 36.4546ZM44.568 27.5554C44.5684 26.7341 44.5687 25.9125 44.5681 25.0905C45.6265 24.3469 46.6877 23.6056 47.7493 22.864C49.4806 21.6546 51.2127 20.4446 52.935 19.2231C56.8894 20.7728 60.4138 23.3743 63.1409 26.6283C62.5421 28.6001 61.9395 30.5701 61.3367 32.5403C60.9379 33.844 60.5391 35.1479 60.1413 36.4524C59.7732 36.5936 59.4053 36.7349 59.0375 36.8762C58.0313 37.2627 57.026 37.6489 56.0187 38.0315C54.7591 37.15 53.4998 36.268 52.2404 35.3859C49.6842 33.5953 47.1277 31.8046 44.568 30.0185C44.5674 29.1994 44.5677 28.3802 44.568 27.5608V27.5554ZM21.4769 29.2226C21.8541 30.4528 22.23 31.6838 22.6059 32.9149L22.6061 32.9156C23.0164 34.2592 23.4267 35.6031 23.8388 36.9461C21.6963 38.566 19.5504 40.1827 17.4042 41.7982C17.6384 37.346 19.045 32.9592 21.4769 29.2226ZM65.2163 38.8412C64.378 38.2095 63.5398 37.5778 62.7018 36.9459C63.2429 35.1817 63.782 33.4169 64.3211 31.6524C64.5677 30.8451 64.8143 30.0378 65.061 29.2308C67.5064 32.9551 68.8932 37.3483 69.1353 41.7964C67.8295 40.8106 66.5229 39.8259 65.2163 38.8412ZM36.4313 52.4295C36.1223 51.5115 35.8135 50.5933 35.5046 49.6752C34.4197 46.4506 33.3346 43.2251 32.2436 40.0019C34.6174 38.3317 36.996 36.6693 39.3747 35.0068C40.6745 34.0983 41.9744 33.1898 43.2737 32.2799C44.1191 32.8715 44.9646 33.4628 45.8101 34.0541C48.6411 36.034 51.4718 38.0137 54.2983 40.0007C52.8966 44.1405 51.5035 48.2838 50.113 52.4283C45.9607 52.435 41.8084 52.4326 37.6558 52.4302C37.2476 52.4299 36.8395 52.4297 36.4313 52.4295ZM21.308 57.0128C19.0559 53.4223 17.703 49.2732 17.4127 45.044C18.4639 44.2503 19.5159 43.4572 20.5679 42.6641C22.2289 41.4119 23.8901 40.1595 25.5487 38.9046C26.4146 39.2279 27.2755 39.5594 28.1378 39.8915C28.6482 40.0881 29.159 40.2848 29.6718 40.4802C30.1556 41.9181 30.6399 43.3558 31.1241 44.7935C32.1047 47.7049 33.0853 50.6161 34.0625 53.5285C33.6049 54.1871 33.1476 54.8477 32.6904 55.5082C32.3005 56.0714 31.9106 56.6345 31.5207 57.1963C29.2385 57.1528 26.9557 57.1126 24.6732 57.0724C23.5513 57.0526 22.4295 57.0329 21.308 57.0128ZM52.4783 53.5281C53.3618 50.8936 54.2493 48.2603 55.1368 45.6269C55.7146 43.9127 56.2923 42.1985 56.869 40.4838C57.5571 40.2203 58.2452 39.9573 58.9334 39.6942L58.942 39.691C59.6265 39.4293 60.3111 39.1677 60.9958 38.9055C62.26 39.8613 63.5245 40.8141 64.7887 41.7667C66.2356 42.8569 67.6822 43.9469 69.1279 45.0411C68.8351 49.2745 67.4821 53.4289 65.2261 57.0233C63.4418 57.0559 61.6599 57.0848 59.8777 57.1136C58.2602 57.1399 56.6425 57.1661 55.0225 57.1951C54.6591 56.6727 54.2963 56.1486 53.9333 55.6241C53.4492 54.9248 52.9648 54.225 52.4783 53.5281ZM36.9795 68.3949C36.5671 67.1948 36.1522 65.9962 35.7373 64.7977C35.0326 62.7619 34.3281 60.7268 33.6368 58.6868C34.1533 57.9566 34.6635 57.2183 35.1728 56.4812C35.509 55.9947 35.8448 55.5088 36.1817 55.0261H36.1924H36.2206H36.2488H36.277H36.3052H36.3334H36.3616H36.3898H36.418H36.4462H36.4744H36.5026H36.5308H36.559H36.5872H36.6154H36.6436H36.6718H36.7H36.7282H36.7564H36.7846H36.8128H36.841H36.8692H36.8974H36.9256H36.9538H36.982H37.0102H37.0384H37.0666H37.0948H37.123H37.1512H37.1794H37.2076H37.2358H37.264H37.2922H37.3204H37.3486H37.3768H37.405H37.4332H37.4614H37.4895H37.5177H37.5459H37.5741H37.6023H37.6305H37.6587H37.6869H37.7151H37.7433H37.7715H37.7997H37.8279H37.8561H37.8843H37.9125H37.9407H37.9689H37.9971H38.0253H38.0535H38.0817H38.1099H38.1381H38.1663H38.1945H38.2227H38.2509H38.2791H38.3073H38.3355H38.3637H38.3919H38.4201H38.4483H38.4765H38.5047H38.5329H38.5611H38.5893H38.6175H38.6457H38.6739H38.7021H38.7303H38.7585H38.7867H38.8149H38.8431H38.8713H38.8995H38.9277H38.9559H38.9841H39.0123H39.0405H39.0687H39.0969H39.1251H39.1533H39.1815H39.2097H39.2379H39.2661H39.2943H39.3225H39.3507H39.3789H39.4071H39.4353H39.4635H39.4917H39.5199H39.5481H39.5763H39.6045H39.6327H39.6609H39.6891H39.7173H39.7455H39.7737H39.8019H39.8301H39.8583H39.8865H39.9147H39.9429H39.9711H39.9993H40.0275H40.0557H40.0839H40.1121H40.1403H40.1685H40.1967H40.2249H40.2531H40.2813H40.3095H40.3377H40.3659H40.3941H40.4223H40.4505H40.4787H40.5069H40.5351H40.5633H40.5915H40.6197H40.6479H40.6761H40.7043H40.7325H40.7607H40.7889H40.8171H40.8453H40.8735H40.9017H40.9299H40.9581H40.9863H41.0145H41.0427H41.0709H41.0991H41.1273H41.1555H41.1837H41.2119H41.2401H41.2683H41.2965H41.3247H41.3529H41.3811H41.4093H41.4375H41.4657H41.4939H41.5221H41.5503H41.5785H41.6067H41.6349H41.6631H41.6913H41.7195H41.7477H41.7759H41.8041H41.8323H41.8605H41.8887H41.9169H41.9451H41.9733H42.0015H42.0297H42.0579H42.0861H42.1143H42.1425H42.1707H42.1989H42.2271H42.2553H42.2835H42.3117H42.3399H42.3681H42.3963H42.4245H42.4527H42.4809H42.5091H42.5373H42.5655H42.5937H42.6219H42.6501H42.6783H42.7065H42.7347H42.7629H42.7911H42.8193H42.8475H42.8757H42.9039H42.9321H42.9603H42.9885H43.0167H43.0449H43.0731H43.1013H43.1295H43.1577H43.1859H43.2141H43.2423H43.2705H43.2987H43.3269H43.3551H43.3833H43.4115H43.4397H43.4679H43.4961H43.5243H43.5525H43.5807H43.6089H43.6371H43.6653H43.6935H43.7217H43.7499H43.7781H43.8063H43.8345H43.8627H43.8909H43.9191H43.9473H43.9755H44.0037H44.0319H44.0601H44.0883H44.1165H44.1447H44.1729H44.2011H44.2293H44.2575H44.2857H44.3139H44.3421H44.3703H44.3985H44.4267H44.4549H44.4831H44.5113H44.5395H44.5677H44.5959H44.6241H44.6523H44.6805H44.7087H44.7369H44.7652H44.7934H44.8216H44.8498H44.878H44.9062H44.9344H44.9626H44.9908H45.019H45.0472H45.0754H45.1036H45.1318H45.16H45.1882H45.2164H45.2446H45.2728H45.301H45.3292H45.3574H45.3856H45.4138H45.442H45.4702H45.4984H45.5266H45.5548H45.583H45.6112H45.6394H45.6676H45.6958H45.724H45.7522H45.7804H45.8086H45.8368H45.865H45.8932H45.9214H45.9496H45.9778H46.006H46.0342H46.0624H46.0906H46.1189H46.1471H46.1753H46.2035H46.2317H46.2599H46.2881H46.3163H46.3445H46.3727H46.4009H46.4291H46.4573H46.4855H46.5137H46.5419H46.5701H46.5983H46.6265H46.6547H46.6829H46.7111H46.7393H46.7675H46.7957H46.8239H46.8521H46.8803H46.9085H46.9367H46.9649H46.9931H47.0213H47.0495H47.0778H47.106H47.1342H47.1624H47.1906H47.2188H47.247H47.2752H47.3034H47.3316H47.3598H47.388H47.4162H47.4444H47.4726H47.5008H47.529H47.5572H47.5854H47.6136H47.6418H47.67H47.6982H47.7264H47.7546H47.7828H47.811H47.8393H47.8675H47.8957H47.9239H47.9521H47.9803H48.0085H48.0367H48.0649H48.0931H48.1213H48.1495H48.1777H48.2059H48.2341H48.2623H48.2905H48.3187H48.3469H48.3751H48.4033H48.4315H48.4597H48.4879H48.5162H48.5444H48.5726H48.6008H48.629H48.6572H48.6854H48.7136H48.7418H48.77H48.7982H48.8264H48.8546H48.8828H48.911H48.9392H48.9674H48.9956H49.0238H49.052H49.0803H49.1085H49.1367H49.1649H49.1931H49.2213H49.2495H49.2777H49.3059H49.3341H49.3623H49.3905H49.4187H49.4469H49.4751H49.5033H49.5315H49.5597H49.5879H49.6162H49.6444H49.6726H49.7008H49.729H49.7572H49.7854H49.8136H49.8418H49.87H49.8982H49.9264H49.9546H49.9828H50.011H50.0392H50.0674H50.0957H50.1239H50.1521H50.1803H50.2085H50.2367H50.2649H50.2931H50.3213H50.3495H50.3603C50.7149 55.5336 51.0685 56.0453 51.4226 56.5577C51.9143 57.2692 52.407 57.9823 52.9052 58.688C52.2422 60.642 51.5678 62.5908 50.893 64.5405C50.4486 65.8247 50.004 67.1093 49.5625 68.3961C45.4517 69.4216 41.0899 69.424 36.9795 68.3949ZM32.7331 64.0437C33.1209 65.1689 33.5088 66.2941 33.8982 67.4198C29.7372 65.8156 26.0155 63.103 23.1957 59.6475C24.5354 59.6677 25.8717 59.6912 27.2085 59.7147C28.5577 59.7384 29.9074 59.7621 31.2615 59.7824C31.7539 61.203 32.2434 62.6233 32.7331 64.0437ZM63.3448 59.6481C60.5272 63.1047 56.8055 65.8184 52.6445 67.4214C52.9263 66.6049 53.2078 65.7883 53.4893 64.9717C54.0853 63.2425 54.6814 61.5132 55.2805 59.7847C56.3909 59.7663 57.5012 59.7471 58.6114 59.7279C60.1893 59.7006 61.7671 59.6733 63.3448 59.6481Z" fill="white" stroke="white" stroke-width="0.5"/>
<path d="M82.2627 61.9865V61.9603L82.2573 61.9347C82.194 61.6366 82.0549 61.3481 81.8192 61.1253C80.6322 59.9357 79.4439 58.7478 78.2559 57.5601C77.0676 56.3722 75.8797 55.1845 74.6934 53.9956C74.4508 53.7412 74.0934 53.4684 73.6425 53.4803C72.9449 53.4624 72.3273 54.075 72.3403 54.7729C72.3251 55.2272 72.5994 55.5891 72.8575 55.8327C74.0309 56.9997 75.2078 58.178 76.385 59.3567C77.6096 60.5827 78.8345 61.8091 80.0558 63.0232C80.4186 63.4096 80.9414 63.4695 81.3723 63.324C81.8032 63.1785 82.186 62.8137 82.2601 62.2997L82.2627 62.2819V62.264V61.9865Z" fill="white" stroke="white" stroke-width="0.5"/>
<path d="M72.5321 60.2136C72.1912 59.8375 71.6237 59.6431 71.1096 59.8376C70.4928 60.0455 70.1098 60.7473 70.2882 61.382C70.3729 61.7355 70.6336 61.9899 70.8257 62.1773C70.8465 62.1976 70.8665 62.2171 70.8854 62.2358C71.8608 63.2068 72.8383 64.1855 73.8162 65.1645C74.8477 66.1971 75.8796 67.2302 76.9099 68.2552C77.2478 68.6205 77.7456 68.6975 78.1652 68.582C78.5832 68.467 78.9701 68.1484 79.0769 67.6662C79.1896 67.295 79.0962 66.9635 78.9333 66.6914C78.7745 66.426 78.5412 66.2019 78.3459 66.0261C77.2375 64.9191 76.13 63.8115 75.0227 62.7039C74.1926 61.8737 73.3626 61.0435 72.5321 60.2136Z" fill="white" stroke="white" stroke-width="0.5"/>
<path d="M67.2203 69.0428L67.2203 69.0428L67.2227 69.0452C67.2421 69.0646 67.2624 69.0853 67.2836 69.107C67.4716 69.299 67.7308 69.5636 68.0898 69.644C68.7212 69.8134 69.4217 69.4305 69.6238 68.8118C69.8113 68.3034 69.6223 67.7433 69.2525 67.4047C69.0028 67.1564 68.7531 66.9058 68.5029 66.6548C68.0764 66.2268 67.6485 65.7974 67.2169 65.3757C66.874 65.0307 66.3351 64.9011 65.8712 65.0735C65.4496 65.2097 65.1696 65.5656 65.0629 65.9502C64.9557 66.3371 65.0142 66.7893 65.3164 67.1228L65.3164 67.1228L65.3202 67.1269C65.6719 67.4979 66.0431 67.8661 66.4111 68.231C66.6858 68.5034 66.9587 68.7741 67.2203 69.0428Z" fill="white" stroke="white" stroke-width="0.5"/>
<path d="M82.2627 70.3657V70.3532L82.2614 70.3407C82.2157 69.8856 81.9198 69.5249 81.5544 69.3359C81.191 69.1481 80.7297 69.1153 80.3343 69.3509C79.8876 69.5783 79.6787 70.0419 79.6783 70.4802C79.678 70.9184 79.886 71.3822 80.3323 71.6106C80.7208 71.8442 81.1714 71.8176 81.5314 71.6388C81.893 71.4593 82.1893 71.1143 82.2595 70.6776L82.2627 70.6579V70.638V70.3657Z" fill="white" stroke="white" stroke-width="0.5"/>
<path d="M66.1047 78.3979L66.1047 78.398L66.1079 78.4011C66.1409 78.433 66.1784 78.4712 66.2187 78.5122C66.3004 78.5954 66.3936 78.6903 66.4834 78.7676C66.6267 78.8911 66.8021 79.0098 67.0241 79.0639C67.6551 79.2438 68.3602 78.8665 68.5703 78.2505C68.7678 77.7382 68.5782 77.1688 68.2044 76.826C67.1796 75.8012 66.1548 74.7767 65.13 73.7522L65.1299 73.7522C64.105 72.7276 63.08 71.7029 62.0551 70.678C61.7484 70.3475 61.264 70.1474 60.7858 70.2645C60.0926 70.408 59.6215 71.164 59.8163 71.852C59.8703 72.0743 59.9883 72.2502 60.112 72.3945C60.1917 72.4875 60.2882 72.5823 60.3732 72.6656C60.4126 72.7043 60.4495 72.7405 60.481 72.7729L60.481 72.773L60.4836 72.7756C62.3591 74.6471 64.2332 76.5212 66.1047 78.3979Z" fill="white" stroke="white" stroke-width="0.5"/>
<path d="M82.2627 80.8338V80.8077L82.2573 80.7822C82.1941 80.4828 82.0549 80.1941 81.8191 79.9712C80.4509 78.6018 79.0822 77.2336 77.7137 75.8655C76.1167 74.269 74.5198 72.6727 72.9241 71.0749C72.9097 71.0596 72.8949 71.044 72.8799 71.0281C72.7081 70.8458 72.4958 70.6206 72.2527 70.4595C71.9803 70.279 71.6436 70.1611 71.2517 70.2658C70.76 70.3606 70.4293 70.7464 70.306 71.1669C70.1823 71.5892 70.2538 72.0944 70.6237 72.4383C72.2436 74.0646 73.868 75.6881 75.4921 77.3112C76.8605 78.6788 78.2286 80.0462 79.5937 81.4148L79.5939 81.415C79.6315 81.4526 79.6712 81.4937 79.7127 81.5366C79.8237 81.6513 79.9472 81.779 80.0757 81.8876C80.2594 82.0428 80.4793 82.184 80.7553 82.2442L80.7816 82.25H80.8086H81.0769H81.0935L81.1099 82.2478C81.6942 82.1699 82.1403 81.715 82.2573 81.1617L82.2627 81.1361V81.11V80.8338Z" fill="white" stroke="white" stroke-width="0.5"/>
<path d="M55.5371 72.5726L55.5371 72.5725L55.5321 72.5687C54.9314 72.1104 54.0005 72.3381 53.6565 72.9944C53.3433 73.5304 53.504 74.2178 53.9394 74.6065C56.3397 77.0055 58.74 79.4059 61.1377 81.8062C61.351 82.0325 61.6245 82.1621 61.8896 82.2399L61.924 82.25H61.96H62.2309H62.2411L62.2513 82.2492C62.7923 82.2048 63.1773 81.8159 63.3312 81.3752C63.4847 80.9359 63.4256 80.3954 63.0241 80.0288C61.7117 78.7075 60.3933 77.3907 59.0753 76.0743C58.2589 75.2588 57.4426 74.4435 56.628 73.6274L56.628 73.6274L56.6235 73.623C56.4976 73.5031 56.3778 73.3797 56.2542 73.2525C56.2051 73.2019 56.1553 73.1506 56.1044 73.0987C55.9284 72.9196 55.7425 72.7378 55.5371 72.5726Z" fill="white" stroke="white" stroke-width="0.5"/>
<path d="M70.6087 82.25H70.6212L70.6337 82.2487C71.0894 82.203 71.451 81.907 71.6406 81.5412C71.829 81.1775 71.8619 80.7154 71.6245 80.3196C71.3973 79.8767 70.9377 79.668 70.5019 79.6655C70.066 79.663 69.6041 79.8662 69.3718 80.3055C69.1332 80.695 69.1563 81.1494 69.3341 81.513C69.5127 81.878 69.8592 82.1776 70.3003 82.2469L70.3196 82.25H70.3391H70.6087Z" fill="white" stroke="white" stroke-width="0.5"/>
</svg>
