<svg width="98" height="98" viewBox="0 0 98 98" fill="none" xmlns="http://www.w3.org/2000/svg">
<rect width="98" height="98" fill="#00A551"/>
<path d="M49.799 47.0592C45.9433 44.2087 40.1649 39.2242 23.5979 39.2242V74.9149C40.1649 74.9149 45.9433 79.8994 49.799 82.7499M49.799 47.0592V82.7499M49.799 47.0592C53.6546 44.2087 59.433 39.2242 76 39.2242V74.9149C59.433 74.9149 53.6546 79.8994 49.799 82.7499M60.0361 16.2809V28.8169M69.1959 16.0025H34.7783C33.8168 16.0013 32.874 16.2692 32.0567 16.7757L23 22.4149L32.0567 28.0437C32.874 28.5503 33.8168 28.8181 34.7783 28.8169H69.1959C70.0522 28.8412 70.9048 28.6935 71.7031 28.3826C72.5013 28.0717 73.2292 27.6038 73.8435 27.0067C74.4578 26.4096 74.9461 25.6953 75.2795 24.9061C75.613 24.117 75.7848 23.269 75.7848 22.4123C75.7848 21.5556 75.613 20.7076 75.2795 19.9184C74.9461 19.1293 74.4578 18.415 73.8435 17.8179C73.2292 17.2208 72.5013 16.7529 71.7031 16.442C70.9048 16.1311 70.0522 15.9782 69.1959 16.0025Z" stroke="white" stroke-width="5.15464" stroke-linecap="round" stroke-linejoin="round"/>
</svg>
