<svg width="98" height="98" viewBox="0 0 98 98" fill="none" xmlns="http://www.w3.org/2000/svg">
<rect width="98" height="98" fill="#00A551"/>
<path d="M37.1929 16.6422L37.1927 16.6426C36.3357 18.9274 36.4628 21.4928 37.2905 23.7488C38.4926 27.0634 40.9828 29.7118 43.7086 31.7958L43.7086 31.7958L43.7119 31.7983C43.9679 31.9873 44.2242 32.183 44.4828 32.3803C45.6264 33.253 46.8139 34.1592 48.2041 34.6805C49.1256 35.037 50.1538 34.9705 51.0435 34.5998C52.2727 34.0881 53.3377 33.2753 54.3614 32.494C54.4903 32.3956 54.6186 32.2977 54.7465 32.2009C56.2319 31.0979 57.635 29.8596 58.8285 28.4278C60.5334 26.394 61.8045 23.8918 62.0374 21.1944C62.2534 18.7558 61.6075 16.1343 59.8914 14.2879C58.3374 12.6003 55.9798 11.4671 53.6161 11.8117C51.9457 12.0371 50.4586 12.9576 49.332 14.1509C47.7541 12.6008 45.5465 11.5335 43.2569 11.7934L43.2561 11.7935C40.5341 12.1119 38.1484 14.1089 37.1929 16.6422ZM39.6336 23.1446L39.6334 23.144C38.9421 21.3894 38.7796 19.4014 39.3922 17.6229C39.97 15.9672 41.4231 14.6339 43.1327 14.2428C44.9248 13.8823 46.7362 14.8375 47.9496 16.1916L47.9494 16.1918L47.959 16.2015C48.0382 16.2807 48.1145 16.3739 48.2011 16.4804L48.2072 16.488C48.2892 16.5888 48.3805 16.7012 48.4806 16.8031C48.6871 17.0133 48.9591 17.2083 49.3422 17.2093C49.93 17.2443 50.3235 16.7901 50.553 16.4558C51.3508 15.3384 52.5059 14.4343 53.8457 14.2132L53.8478 14.2129C55.1693 13.9834 56.5535 14.4805 57.5593 15.3799L57.5593 15.3799L57.5614 15.3818C58.9725 16.6147 59.7144 18.5179 59.6852 20.3932L59.6852 20.395C59.6667 22.6551 58.6299 24.799 57.2234 26.5704L57.2222 26.5719C55.6664 28.5639 53.6147 30.0858 51.5555 31.5944C51.5367 31.607 51.5179 31.6196 51.4991 31.6323C51.0997 31.9009 50.6892 32.177 50.2599 32.3499C49.8162 32.5286 49.3787 32.5859 48.9397 32.4168C47.9462 32.0145 47.1007 31.3616 46.2294 30.689C45.9749 30.4925 45.7182 30.2943 45.455 30.1001C43.0134 28.243 40.7512 26.0032 39.6336 23.1446Z" fill="white" stroke="white" stroke-width="0.5"/>
<path d="M44.736 23.8654L44.736 23.8654L44.7389 23.8684C45.1931 24.3396 45.6636 24.807 46.1321 25.2723C46.4898 25.6277 46.8463 25.9818 47.1933 26.3354C47.5087 26.7271 47.95 26.8241 48.3549 26.7375C48.7446 26.6541 49.1091 26.4019 49.3406 26.0763C50.3398 25.0718 51.3417 24.0704 52.3438 23.0686C52.8456 22.5669 53.3475 22.0652 53.8492 21.563C54.3091 21.1535 54.4087 20.3917 53.9878 19.896C53.5754 19.3665 52.7207 19.2925 52.2378 19.7797C51.3903 20.6122 50.5502 21.4556 49.7111 22.2979C49.1859 22.8252 48.661 23.352 48.135 23.8756C48.0367 23.7768 47.9384 23.6779 47.84 23.5789C47.3999 23.1361 46.9583 22.6918 46.5121 22.2549C46.1452 21.8661 45.5206 21.7615 45.0504 22.0403C44.7238 22.2152 44.5247 22.5391 44.4639 22.8735C44.4027 23.2105 44.4769 23.5874 44.736 23.8654Z" fill="white" stroke="white" stroke-width="0.5"/>
<path d="M56.5618 34.8524C55.5867 36.3604 55.3413 38.3113 55.925 40.0128C56.2698 41.0654 56.9219 41.9977 57.7578 42.7111C56.2215 43.5459 54.968 44.8755 54.2227 46.457C53.8191 46.0251 53.3584 45.6568 52.8678 45.3398C54.1302 44.0266 54.5746 41.9914 53.9172 40.2774C53.2315 38.343 51.2321 36.9908 49.1782 37.0912C47.0202 37.1269 45.0426 38.7611 44.5879 40.8671C44.1943 42.462 44.7175 44.1697 45.8106 45.3511C45.3203 45.6526 44.8751 46.021 44.4809 46.4366C43.7381 44.8385 42.4806 43.4851 40.9274 42.6473C41.9344 41.7795 42.6703 40.5926 42.9415 39.2785C43.4535 36.9841 42.4654 34.4581 40.5354 33.1192C38.7675 31.8406 36.3028 31.6486 34.359 32.6402C32.3929 33.5985 31.0602 35.6877 31.0245 37.8753C30.9649 39.6848 31.785 41.4785 33.1628 42.6397C30.6795 43.9721 28.9745 46.6435 28.8773 49.4735L28.8773 49.4735L28.8772 49.4787C28.8549 51.1209 28.8613 52.7642 28.8724 54.4039C28.8657 55.1623 29.6093 55.6539 30.2712 55.5761C35.4926 55.5742 40.7143 55.5746 45.936 55.5751C53.4841 55.5757 61.0322 55.5764 68.5802 55.5698C69.2165 55.5979 69.8183 55.0596 69.8118 54.3992C69.8245 52.8142 69.8261 51.2273 69.8102 49.6417L69.8101 49.6386L56.7723 34.9873M56.5618 34.8524C56.562 34.8521 56.5622 34.8518 56.5624 34.8515L56.7723 34.9873M56.5618 34.8524C56.5616 34.8527 56.5614 34.853 56.5612 34.8533L56.7723 34.9873M56.5618 34.8524C57.4396 33.469 58.9022 32.4802 60.5114 32.1812M56.7723 34.9873C57.6131 33.6617 59.0165 32.7129 60.5581 32.4268M60.5114 32.1812C60.511 32.1813 60.5107 32.1814 60.5103 32.1814L60.5581 32.4268M60.5114 32.1812C62.2136 31.8498 64.0418 32.3034 65.3924 33.3895M60.5114 32.1812C60.5118 32.1811 60.5121 32.1811 60.5125 32.181L60.5581 32.4268M60.5581 32.4268L65.3924 33.3895M65.3924 33.3895C65.3929 33.3899 65.3934 33.3903 65.3939 33.3907L65.2372 33.5854L65.391 33.3884C65.3915 33.3887 65.3919 33.3891 65.3924 33.3895ZM65.2779 42.5838C65.2064 42.6429 65.1334 42.7003 65.0592 42.756C65.1433 42.7956 65.2266 42.8368 65.3091 42.8794C65.3803 42.8237 65.4504 42.7664 65.5192 42.7075C65.4395 42.6649 65.3591 42.6236 65.2779 42.5838ZM67.45 39.6759C67.4502 39.6753 67.4504 39.6746 67.4506 39.6739C67.4508 39.6732 67.451 39.6725 67.4511 39.6718L67.2096 39.6075L67.45 39.6759ZM58.2154 42.7576C58.1415 42.7021 58.0689 42.6449 57.9976 42.586L57.9675 42.8825C58.0493 42.8394 58.132 42.7977 58.2154 42.7576ZM36.1243 34.5438L36.1243 34.5439L36.1293 34.5424C37.8495 34.0454 39.8303 35.0736 40.427 36.7601L40.4269 36.7602L40.4296 36.7672C40.8995 37.9781 40.6362 39.4368 39.7732 40.4095L39.7731 40.4095L39.7706 40.4125C38.9831 41.329 37.7088 41.7981 36.5144 41.6141L36.5113 41.6136C35.3459 41.4491 34.2891 40.6664 33.7876 39.6026L33.7876 39.6026L33.7859 39.599C33.266 38.5399 33.3292 37.2213 33.932 36.2086L33.932 36.2086L33.9335 36.206C34.4047 35.3926 35.2137 34.7863 36.1243 34.5438ZM60.9043 34.5693L60.9043 34.5694L60.9075 34.5686C62.2182 34.2798 63.6639 34.815 64.4829 35.8774L64.4829 35.8774L64.4861 35.8814C65.4506 37.08 65.504 38.9129 64.608 40.1627L64.608 40.1627L64.6044 40.1679C63.8543 41.2723 62.4505 41.8858 61.1293 41.6871L61.1293 41.687L61.1253 41.6865C59.8963 41.5219 58.7873 40.6677 58.3112 39.5226L58.3112 39.5226L58.3095 39.5186C57.837 38.4359 57.9613 37.1158 58.6145 36.1315L58.6164 36.1285C59.1291 35.3314 59.9751 34.7611 60.9043 34.5693ZM48.5307 39.6392L48.5307 39.6392L48.5335 39.6383C49.446 39.3168 50.5381 39.589 51.1762 40.3131L51.1761 40.3132L51.1814 40.3189C51.8801 41.0635 52.0209 42.2651 51.5195 43.1545L51.5193 43.1544L51.5152 43.1624C50.9234 44.3059 49.3588 44.786 48.222 44.1774L48.2221 44.1772L48.2125 44.1725C47.1225 43.6476 46.5714 42.2428 47.0188 41.1158L47.0189 41.1159L47.0211 41.1099C47.2715 40.4291 47.8425 39.8725 48.5307 39.6392ZM33.509 45.2825L33.509 45.2825L33.5115 45.2805C34.8846 44.1948 36.77 43.8057 38.4642 44.2425L38.4642 44.2426L38.4682 44.2435C40.8303 44.8105 42.676 47.0175 42.8033 49.4434C42.83 50.2727 42.8263 51.0968 42.8225 51.9264C42.8206 52.3383 42.8187 52.7515 42.8205 53.1673H42.8133H42.7897H42.7662H42.7427H42.7191H42.6956H42.6721H42.6485H42.625H42.6015H42.5779H42.5544H42.5309H42.5073H42.4838H42.4603H42.4367H42.4132H42.3897H42.3662H42.3426H42.3191H42.2956H42.272H42.2485H42.225H42.2014H42.1779H42.1544H42.1308H42.1073H42.0838H42.0602H42.0367H42.0132H41.9896H41.9661H41.9426H41.9191H41.8955H41.872H41.8485H41.8249H41.8014H41.7779H41.7543H41.7308H41.7073H41.6837H41.6602H41.6367H41.6131H41.5896H41.5661H41.5426H41.519H41.4955H41.472H41.4484H41.4249H41.4014H41.3778H41.3543H41.3308H41.3072H41.2837H41.2602H41.2367H41.2131H41.1896H41.1661H41.1425H41.119H41.0955H41.0719H41.0484H41.0249H41.0014H40.9778H40.9543H40.9308H40.9072H40.8837H40.8602H40.8366H40.8131H40.7896H40.766H40.7425H40.719H40.6955H40.6719H40.6484H40.6249H40.6013H40.5778H40.5543H40.5308H40.5072H40.4837H40.4602H40.4366H40.4131H40.3896H40.366H40.3425H40.319H40.2955H40.2719H40.2484H40.2249H40.2013H40.1778H40.1543H40.1307H40.1072H40.0837H40.0602H40.0366H40.0131H39.9896H39.966H39.9425H39.919H39.8955H39.8719H39.8484H39.8249H39.8013H39.7778H39.7543H39.7307H39.7072H39.6837H39.6602H39.6366H39.6131H39.5896H39.566H39.5425H39.519H39.4955H39.4719H39.4484H39.4249H39.4013H39.3778H39.3543H39.3308H39.3072H39.2837H39.2602H39.2366H39.2131H39.1896H39.1661H39.1425H39.119H39.0955H39.0719H39.0484H39.0249H39.0014H38.9778H38.9543H38.9308H38.9072H38.8837H38.8602H38.8366H38.8131H38.7896H38.7661H38.7425H38.719H38.6955H38.6719H38.6484H38.6249H38.6014H38.5778H38.5543H38.5308H38.5072H38.4837H38.4602H38.4367H38.4131H38.3896H38.3661H38.3426H38.319H38.2955H38.272H38.2484H38.2249H38.2014H38.1779H38.1543H38.1308H38.1073H38.0837H38.0602H38.0367H38.0132H37.9896H37.9661H37.9426H37.919H37.8955H37.872H37.8485H37.8249H37.8014H37.7779H37.7543H37.7308H37.7073H37.6838H37.6602H37.6367H37.6132H37.5896H37.5661H37.5426H37.5191H37.4955H37.472H37.4485H37.4249H37.4014H37.3779H37.3544H37.3308H37.3073H37.2838H37.2602H37.2367H37.2132H37.1897H37.1661H37.1426H37.1191H37.0955H37.072H37.0485H37.025H37.0014H36.9779H36.9544H36.9309H36.9073H36.8838H36.8603H36.8367H36.8132H36.7897H36.7662H36.7426H36.7191H36.6956H36.672H36.6485H36.625H36.6015H36.5779H36.5544H36.5309H36.5073H36.4838H36.4603H36.4368H36.4132H36.3897H36.3662H36.3426H36.3191H36.2956H36.2721H36.2485H36.225H36.2015H36.1779H36.1544H36.1309H36.1074H36.0838H36.0603H36.0368H36.0132H35.9897H35.9662H35.9427H35.9191H35.8956H35.8721H35.8485H35.825H35.8015H35.778H35.7544H35.7309H35.7074H35.6838H35.6603H35.6368H35.6133H35.5897H35.5662H35.5427H35.5192H35.4956H35.4721H35.4486H35.425H35.4015H35.378H35.3545H35.3309H35.3074H35.2839H35.2603H35.2368H35.2133H35.1897H35.1662H35.1427H35.1192H35.0956H35.0721H35.0486H35.025H35.0015H34.978H34.9545H34.9309H34.9074H34.8839H34.8603H34.8368H34.8133H34.7898H34.7662H34.7427H34.7192H34.6956H34.6721H34.6486H34.6251H34.6015H34.578H34.5545H34.5309H34.5074H34.4839H34.4604H34.4368H34.4133H34.3898H34.3662H34.3427H34.3192H34.2957H34.2721H34.2486H34.2251H34.2015H34.178H34.1545H34.1309H34.1074H34.0839H34.0604H34.0368H34.0133H33.9898H33.9662H33.9427H33.9192H33.8957H33.8721H33.8486H33.8251H33.8015H33.778H33.7545H33.7309H33.7074H33.6839H33.6604H33.6368H33.6133H33.5898H33.5662H33.5427H33.5192H33.4956H33.4721H33.4486H33.4251H33.4015H33.378H33.3545H33.3309H33.3074H33.2839H33.2603H33.2368H33.2133H33.1898H33.1662H33.1427H33.1192H33.0956H33.0721H33.0486H33.025H33.0015H32.978H32.9545H32.9309H32.9074H32.8839H32.8603H32.8368H32.8133H32.7897H32.7662H32.7427H32.7191H32.6956H32.6721H32.6486H32.625H32.6015H32.578H32.5544H32.5309H32.5074H32.4838H32.4603H32.4368H32.4132H32.3897H32.3662H32.3427H32.3191H32.2956H32.2721H32.2485H32.225H32.2015H32.1779H32.1544H32.1309H32.1073H32.0838H32.0603H32.0367H32.0132H31.9897H31.9662H31.9426H31.9191H31.8956H31.872H31.8485H31.825H31.8014H31.7779H31.7544H31.7308H31.7073H31.6838H31.6602H31.6367H31.6132H31.5896H31.5661H31.5426H31.519H31.4955H31.472H31.4485H31.4249H31.4014H31.3779H31.3543H31.3308H31.3073H31.2837H31.2756C31.2763 52.7795 31.2754 52.3929 31.2745 52.0069C31.2726 51.2162 31.2708 50.4283 31.2828 49.6383C31.3273 47.9509 32.1726 46.3113 33.509 45.2825ZM59.0117 44.7687L59.014 44.7675C60.4776 44.0083 62.2746 43.929 63.7991 44.5559L63.8016 44.5569C65.4273 45.2048 66.7149 46.6365 67.1857 48.3226C67.391 49.1323 67.4308 49.9664 67.4266 50.8235C67.4253 51.1061 67.419 51.3937 67.4126 51.6838C67.4019 52.1757 67.391 52.6746 67.4037 53.1673H67.3801H67.3566H67.3331H67.3095H67.286H67.2625H67.2389H67.2154H67.1919H67.1683H67.1448H67.1213H67.0977H67.0742H67.0507H67.0271H67.0036H66.9801H66.9566H66.933H66.9095H66.886H66.8624H66.8389H66.8154H66.7918H66.7683H66.7448H66.7212H66.6977H66.6742H66.6506H66.6271H66.6036H66.58H66.5565H66.533H66.5095H66.4859H66.4624H66.4389H66.4153H66.3918H66.3683H66.3447H66.3212H66.2977H66.2741H66.2506H66.2271H66.2035H66.18H66.1565H66.133H66.1094H66.0859H66.0624H66.0388H66.0153H65.9918H65.9682H65.9447H65.9212H65.8977H65.8741H65.8506H65.8271H65.8035H65.78H65.7565H65.7329H65.7094H65.6859H65.6623H65.6388H65.6153H65.5918H65.5682H65.5447H65.5212H65.4976H65.4741H65.4506H65.427H65.4035H65.38H65.3565H65.3329H65.3094H65.2859H65.2623H65.2388H65.2153H65.1918H65.1682H65.1447H65.1212H65.0976H65.0741H65.0506H65.027H65.0035H64.98H64.9565H64.9329H64.9094H64.8859H64.8623H64.8388H64.8153H64.7918H64.7682H64.7447H64.7212H64.6976H64.6741H64.6506H64.6271H64.6035H64.58H64.5565H64.5329H64.5094H64.4859H64.4624H64.4388H64.4153H64.3918H64.3682H64.3447H64.3212H64.2977H64.2741H64.2506H64.2271H64.2035H64.18H64.1565H64.133H64.1094H64.0859H64.0624H64.0388H64.0153H63.9918H63.9683H63.9447H63.9212H63.8977H63.8741H63.8506H63.8271H63.8036H63.78H63.7565H63.733H63.7094H63.6859H63.6624H63.6389H63.6153H63.5918H63.5683H63.5448H63.5212H63.4977H63.4742H63.4506H63.4271H63.4036H63.3801H63.3565H63.333H63.3095H63.286H63.2624H63.2389H63.2154H63.1918H63.1683H63.1448H63.1213H63.0977H63.0742H63.0507H63.0272H63.0036H62.9801H62.9566H62.933H62.9095H62.886H62.8625H62.8389H62.8154H62.7919H62.7684H62.7448H62.7213H62.6978H62.6742H62.6507H62.6272H62.6037H62.5801H62.5566H62.5331H62.5096H62.486H62.4625H62.439H62.4155H62.3919H62.3684H62.3449H62.3214H62.2978H62.2743H62.2508H62.2272H62.2037H62.1802H62.1567H62.1331H62.1096H62.0861H62.0626H62.039H62.0155H61.992H61.9685H61.9449H61.9214H61.8979H61.8744H61.8508H61.8273H61.8038H61.7802H61.7567H61.7332H61.7097H61.6861H61.6626H61.6391H61.6156H61.592H61.5685H61.545H61.5215H61.4979H61.4744H61.4509H61.4274H61.4038H61.3803H61.3568H61.3333H61.3097H61.2862H61.2627H61.2392H61.2156H61.1921H61.1686H61.1451H61.1215H61.098H61.0745H61.0509H61.0274H61.0039H60.9804H60.9568H60.9333H60.9098H60.8863H60.8627H60.8392H60.8157H60.7922H60.7686H60.7451H60.7216H60.6981H60.6745H60.651H60.6275H60.604H60.5804H60.5569H60.5334H60.5099H60.4863H60.4628H60.4393H60.4158H60.3922H60.3687H60.3452H60.3217H60.2981H60.2746H60.2511H60.2276H60.204H60.1805H60.157H60.1335H60.1099H60.0864H60.0629H60.0394H60.0158H59.9923H59.9688H59.9453H59.9217H59.8982H59.8747H59.8512H59.8276H59.8041H59.7806H59.7571H59.7335H59.71H59.6865H59.663H59.6394H59.6159H59.5924H59.5689H59.5453H59.5218H59.4983H59.4748H59.4512H59.4277H59.4042H59.3807H59.3571H59.3336H59.3101H59.2866H59.2631H59.2395H59.216H59.1925H59.169H59.1454H59.1219H59.0984H59.0749H59.0513H59.0278H59.0043H58.9808H58.9572H58.9337H58.9102H58.8867H58.8631H58.8396H58.8161H58.7926H58.769H58.7455H58.722H58.6985H58.6749H58.6514H58.6279H58.6044H58.5808H58.5573H58.5338H58.5103H58.4867H58.4632H58.4397H58.4162H58.3927H58.3691H58.3456H58.3221H58.2986H58.275H58.2515H58.228H58.2045H58.1809H58.1574H58.1339H58.1104H58.0868H58.0633H58.0398H58.0163H57.9927H57.9692H57.9457H57.9222H57.8986H57.8751H57.8516H57.8281H57.8046H57.781H57.7575H57.734H57.7105H57.6869H57.6634H57.6399H57.6164H57.5928H57.5693H57.5458H57.5223H57.4987H57.4752H57.4517H57.4282H57.4046H57.3811H57.3576H57.3341H57.3106H57.287H57.2635H57.24H57.2165H57.1929H57.1694H57.1459H57.1224H57.0988H57.0753H57.0518H57.0283H57.0047H56.9812H56.9577H56.9342H56.9107H56.8871H56.8636H56.8401H56.8166H56.793H56.7695H56.746H56.7225H56.6989H56.6754H56.6519H56.6284H56.6048H56.5813H56.5578H56.5343H56.5107H56.4872H56.4637H56.4402H56.4167H56.3931H56.3696H56.3461H56.3226H56.299H56.2755H56.252H56.2285H56.2049H56.1814H56.1579H56.1344H56.1108H56.0873H56.0638H56.0403H56.0168H55.9932H55.9697H55.9462H55.9227H55.8991H55.8756H55.8714C55.8773 52.7154 55.8712 52.2622 55.8653 51.813C55.8626 51.6095 55.8599 51.4068 55.8583 51.2054C55.8526 50.4727 55.8614 49.7497 55.935 49.0327C56.1948 47.2284 57.3843 45.5915 59.0117 44.7687ZM51.2769 47.2166L51.2768 47.2167L51.2838 47.2199C52.5233 47.7957 53.3945 49.0898 53.4486 50.455C53.4644 51.0705 53.4617 51.681 53.4589 52.2958C53.4577 52.585 53.4564 52.8751 53.457 53.1671C52.3417 53.1661 51.227 53.1666 50.1125 53.1672C48.4867 53.168 46.8614 53.1688 45.2354 53.1648C45.2425 52.8042 45.2355 52.4415 45.2285 52.0846C45.2251 51.9062 45.2216 51.7292 45.22 51.5547C45.2143 50.9412 45.2303 50.3443 45.3371 49.7597C45.6808 48.2567 47.0323 47.0464 48.5651 46.8814C49.5189 46.8119 50.4659 46.8089 51.2769 47.2166Z" fill="white" stroke="white" stroke-width="0.5"/>
<path d="M18.166 45.9938H18.1659C18.1596 51.4466 18.1611 56.8995 18.1659 62.3524L18.1659 62.3544C18.1505 64.5958 19.1221 66.8169 20.7737 68.33C22.0823 69.5204 23.392 70.6972 24.7023 71.8746C25.8997 72.9505 27.0975 74.0268 28.2955 75.1143L18.166 45.9938ZM18.166 45.9938L18.1658 45.9868C18.1405 45.0383 18.8828 44.1385 19.8179 43.9899L19.8179 43.99L19.8261 43.9884C20.6175 43.8352 21.4805 44.2221 21.8922 44.9135L21.8921 44.9136L21.8976 44.9222C22.1226 45.2672 22.187 45.696 22.2316 46.1665L22.2316 46.1665L22.2318 46.1684C22.4027 47.8319 22.5772 49.495 22.7516 51.1578L22.7516 51.1579C22.9208 52.7713 23.0901 54.3844 23.256 55.9979L18.166 45.9938ZM28.6492 56.3197L28.6485 56.3191C27.8161 55.5749 26.7025 55.1971 25.5987 55.2196C25.472 54.0158 25.3462 52.8117 25.2205 51.6074C25.0062 49.5555 24.7919 47.5032 24.5728 45.4513C24.3833 43.5514 22.832 41.9109 20.9488 41.6054C19.1585 41.2662 17.2386 42.1652 16.3469 43.7514C15.8864 44.5266 15.7216 45.4309 15.7539 46.3018C15.7557 49.3564 15.7555 52.4103 15.7552 55.464C15.755 57.7552 15.7548 60.0463 15.7555 62.3376C15.7411 64.7192 16.5658 67.095 18.0637 68.9485C18.6108 69.6448 19.2766 70.2371 19.9215 70.8108C20.1184 70.986 20.3134 71.1594 20.5025 71.3336L20.5045 71.3355C21.1468 71.9139 21.7894 72.4919 22.432 73.0699C23.8539 74.3489 25.2756 75.6277 26.693 76.9105L26.6933 76.9108C27.6441 77.7682 28.2117 79.0316 28.2192 80.3122L28.2192 80.3135C28.2276 81.0782 28.2257 81.8434 28.2238 82.6109L28.2236 82.6927C28.2216 83.486 28.22 84.2816 28.2303 85.0775C28.2242 85.7414 28.8331 86.2809 29.4745 86.2458C34.8248 86.2506 40.1737 86.2522 45.5241 86.2458C46.248 86.2744 46.817 85.5957 46.744 84.9089C46.7435 83.7841 46.7442 82.6592 46.7449 81.5343C46.7463 79.2745 46.7477 77.0145 46.7392 74.755L46.7392 74.7529C46.7049 71.9648 45.4129 69.2283 43.2809 67.4331C42.4444 66.7037 41.485 66.1939 40.5106 65.7502C40.1307 65.5773 39.7535 65.4163 39.3798 65.2568C38.7899 65.005 38.2085 64.7569 37.6387 64.4711C36.0027 63.0053 34.3821 61.5286 32.7604 60.0509C31.3941 58.8059 30.027 57.5602 28.6492 56.3197Z" fill="white" stroke="white" stroke-width="0.5"/>
<path d="M82.9303 45.9761C82.9319 44.8054 82.4538 43.6339 81.6027 42.8189C80.354 41.5702 78.3411 41.1983 76.732 41.9313C75.3037 42.543 74.2703 43.952 74.1114 45.4966C73.9019 47.4333 73.6999 49.3711 73.4979 51.3083C73.3617 52.6142 73.2255 53.9198 73.0871 55.2247C72.3984 55.2132 71.6993 55.3348 71.0648 55.6414C70.6649 55.8205 70.3229 56.0729 70.0107 56.3396C69.8542 56.4734 69.703 56.6127 69.5558 56.7491C69.5429 56.7611 69.5299 56.773 69.5171 56.785C69.3824 56.9098 69.2511 57.0315 69.1174 57.1486L69.1174 57.1485L69.1138 57.1518C68.2356 57.9511 67.3571 58.7501 66.4786 59.5492C64.7214 61.1474 62.964 62.7458 61.2082 64.3469L61.2082 64.3469L61.2039 64.3509C61.0745 64.4746 60.9131 64.5622 60.7203 64.6461C60.6605 64.6721 60.5934 64.6993 60.5229 64.7279C60.386 64.7833 60.2366 64.8439 60.1046 64.9104C59.7705 65.0642 59.4264 65.2123 59.0784 65.3621C57.8046 65.9101 56.479 66.4806 55.404 67.4355C53.2761 69.2304 51.9792 71.9617 51.9482 74.7484H51.9482L51.9482 74.7502C51.9397 77.0108 51.9411 79.2726 51.9425 81.5335C51.9432 82.6587 51.9439 83.7837 51.9434 84.9082C51.8667 85.599 52.4429 86.2761 53.1667 86.2458C58.5172 86.2522 63.8677 86.2506 69.218 86.2458C69.8591 86.2792 70.4633 85.7351 70.4555 85.0741C70.4674 84.2607 70.4658 83.4476 70.4638 82.6369L70.4637 82.5643C70.4617 81.7765 70.4598 80.991 70.4698 80.2058C70.5018 78.9613 71.0689 77.7426 71.9952 76.9112L71.9957 76.9107C73.1566 75.863 74.3193 74.8159 75.4821 73.7687C76.8012 72.5808 78.1203 71.3929 79.4367 70.204C81.1846 68.6383 82.389 66.4761 82.7771 64.1585C82.9436 63.2512 82.9378 62.3238 82.9321 61.4261C82.9303 61.1505 82.9286 60.8776 82.9319 60.609H82.9319V60.6059C82.9312 58.656 82.9316 56.7058 82.932 54.7555C82.9326 51.8294 82.9331 48.9029 82.9303 45.9761ZM82.9303 45.9761C82.9303 45.9762 82.9303 45.9763 82.9303 45.9764L82.6803 45.976M82.9303 45.9761C82.9303 45.976 82.9303 45.9759 82.9303 45.9758L82.6803 45.976M82.6803 45.976C82.6831 48.9029 82.6826 51.8292 82.682 54.7553C82.6816 56.7056 82.6812 58.6558 82.6819 60.606M82.6803 45.976C82.6819 44.8698 82.2289 43.7636 81.4279 42.9976C80.2518 41.8199 78.3477 41.4686 76.8331 42.16L82.6819 60.606M82.6819 60.606C82.6785 60.8849 82.6802 61.1644 82.6819 61.4442C82.6875 62.3376 82.6931 63.2329 82.5309 64.1152C82.1526 66.3769 80.9765 68.4891 79.2695 70.0181C77.9526 71.2075 76.6338 72.3952 75.3148 73.5829C74.1524 74.6298 72.9898 75.6768 71.8282 76.7251C70.8508 77.6025 70.2532 78.8867 70.2198 80.201L82.6819 60.606ZM77.4394 44.2642L77.4394 44.2642C76.9061 44.5926 76.5544 45.1857 76.5005 45.8131L76.5 45.8182L76.5 45.8182C76.2136 48.5024 75.9339 51.1875 75.6543 53.8731C75.5807 54.5793 75.5072 55.2855 75.4335 55.9917C77.0606 57.0985 77.7942 59.3307 77.0565 61.1792C76.7437 62.0931 76.044 62.765 75.4121 63.3717C75.3148 63.4652 75.2191 63.5571 75.1267 63.6481L75.1262 63.6486C72.6891 66.0349 70.252 68.4212 67.8165 70.8075C67.4221 71.261 66.6857 71.4032 66.1705 71.0084C65.8709 70.8001 65.7099 70.4636 65.6839 70.1297C65.6578 69.7947 65.7655 69.4359 66.0376 69.1852C67.5428 67.7026 69.0553 66.2238 70.5673 64.7453C71.8167 63.5237 73.0658 62.3023 74.3104 61.0793L74.3137 61.076L74.3138 61.076C74.8417 60.5764 75.0656 59.7769 74.8594 59.0813L74.8578 59.076L74.8579 59.076C74.6513 58.3184 73.9458 57.7192 73.1648 57.6492L73.1564 57.6485L73.1564 57.6483C72.5816 57.5772 71.9858 57.7909 71.5544 58.1894L71.5524 58.1913L71.5524 58.1913C70.3214 59.3036 69.0939 60.4227 67.8658 61.5422C66.0689 63.1803 64.2711 64.8192 62.4604 66.4392L62.4383 66.459L62.4122 66.4731C61.7159 66.8479 60.9907 67.1603 60.2757 67.4665L60.2186 67.491C59.5205 67.7899 58.833 68.0843 58.173 68.4314C56.3216 69.4421 54.9547 71.2889 54.5184 73.3503L54.5175 73.3548L54.5174 73.3548C54.3418 74.1148 54.3457 74.8932 54.3496 75.7005L77.4394 44.2642ZM77.4394 44.2642L77.4441 44.2612C78.1645 43.795 79.1941 43.8772 79.8317 44.4516L79.8317 44.4517L79.837 44.4562C80.3063 44.8559 80.5496 45.4903 80.528 46.1216L80.5278 46.1216V46.1302C80.5278 48.7001 80.527 51.27 80.5262 53.8402L80.5262 53.8579C80.5255 56.4222 80.5247 58.9867 80.5246 61.5516L80.5247 61.5545C80.5358 62.5074 80.5125 63.4475 80.2755 64.3421L80.2755 64.3421L80.2744 64.3466C79.8926 65.906 79.0187 67.3329 77.8287 68.4102C76.5426 69.574 75.2563 70.7323 73.9698 71.8907C72.7796 72.9624 71.5892 74.0343 70.3988 75.1107C69.1437 76.2391 68.3099 77.8217 68.1135 79.5013L68.1134 79.5013L68.1126 79.5107C68.0361 80.4847 68.0458 81.4748 68.0555 82.4522C68.0601 82.9194 68.0647 83.3836 68.0598 83.8418H68.0565H68.0287H68.001H67.9732H67.9455H67.9177H67.89H67.8622H67.8345H67.8067H67.7789H67.7512H67.7234H67.6957H67.6679H67.6402H67.6124H67.5847H67.5569H67.5292H67.5014H67.4737H67.4459H67.4182H67.3904H67.3627H67.3349H67.3072H67.2794H67.2517H67.2239H67.1962H67.1684H67.1407H67.1129H67.0852H67.0574H67.0297H67.0019H66.9742H66.9464H66.9187H66.8909H66.8632H66.8354H66.8077H66.7799H66.7522H66.7244H66.6967H66.6689H66.6412H66.6134H66.5857H66.5579H66.5302H66.5024H66.4747H66.4469H66.4192H66.3914H66.3637H66.336H66.3082H66.2805H66.2527H66.225H66.1972H66.1695H66.1417H66.114H66.0862H66.0585H66.0307H66.003H65.9752H65.9475H65.9197H65.892H65.8642H65.8365H65.8087H65.781H65.7532H65.7255H65.6977H65.67H65.6422H65.6145H65.5867H65.559H65.5312H65.5035H65.4757H65.448H65.4202H65.3925H65.3648H65.337H65.3093H65.2815H65.2538H65.226H65.1983H65.1705H65.1428H65.115H65.0873H65.0595H65.0318H65.004H64.9763H64.9485H64.9208H64.893H64.8653H64.8375H64.8098H64.782H64.7543H64.7266H64.6988H64.6711H64.6433H64.6156H64.5878H64.5601H64.5323H64.5046H64.4768H64.4491H64.4213H64.3936H64.3658H64.3381H64.3103H64.2826H64.2549H64.2271H64.1994H64.1716H64.1439H64.1161H64.0884H64.0606H64.0329H64.0051H63.9774H63.9496H63.9219H63.8941H63.8664H63.8386H63.8109H63.7832H63.7554H63.7277H63.6999H63.6722H63.6444H63.6167H63.5889H63.5612H63.5334H63.5057H63.4779H63.4502H63.4225H63.3947H63.367H63.3392H63.3115H63.2837H63.256H63.2282H63.2005H63.1727H63.145H63.1172H63.0895H63.0618H63.034H63.0063H62.9785H62.9508H62.923H62.8953H62.8675H62.8398H62.812H62.7843H62.7566H62.7288H62.7011H62.6733H62.6456H62.6178H62.5901H62.5623H62.5346H62.5068H62.4791H62.4514H62.4236H62.3959H62.3681H62.3404H62.3126H62.2849H62.2571H62.2294H62.2016H62.1739H62.1462H62.1184H62.0907H62.0629H62.0352H62.0074H61.9797H61.9519H61.9242H61.8964H61.8687H61.841H61.8132H61.7855H61.7577H61.73H61.7022H61.6745H61.6467H61.619H61.5913H61.5635H61.5358H61.508H61.4803H61.4525H61.4248H61.397H61.3693H61.3415H61.3138H61.2861H61.2583H61.2306H61.2028H61.1751H61.1473H61.1196H61.0918H61.0641H61.0364H61.0086H60.9809H60.9531H60.9254H60.8976H60.8699H60.8421H60.8144H60.7867H60.7589H60.7312H60.7034H60.6757H60.6479H60.6202H60.5925H60.5647H60.537H60.5092H60.4815H60.4537H60.426H60.3982H60.3705H60.3428H60.315H60.2873H60.2595H60.2318H60.204H60.1763H60.1485H60.1208H60.0931H60.0653H60.0376H60.0098H59.9821H59.9543H59.9266H59.8989H59.8711H59.8434H59.8156H59.7879H59.7601H59.7324H59.7046H59.6769H59.6492H59.6214H59.5937H59.5659H59.5382H59.5104H59.4827H59.455H59.4272H59.3995H59.3717H59.344H59.3162H59.2885H59.2607H59.233H59.2053H59.1775H59.1498H59.122H59.0943H59.0665H59.0388H59.0111H58.9833H58.9556H58.9278H58.9001H58.8723H58.8446H58.8169H58.7891H58.7614H58.7336H58.7059H58.6781H58.6504H58.6227H58.5949H58.5672H58.5394H58.5117H58.4839H58.4562H58.4285H58.4007H58.373H58.3452H58.3175H58.2897H58.262H58.2343H58.2065H58.1788H58.151H58.1233H58.0955H58.0678H58.0401H58.0123H57.9846H57.9568H57.9291H57.9013H57.8736H57.8459H57.8181H57.7904H57.7626H57.7349H57.7071H57.6794H57.6517H57.6239H57.5962H57.5684H57.5407H57.5129H57.4852H57.4575H57.4297H57.402H57.3742H57.3465H57.3187H57.291H57.2633H57.2355H57.2078H57.18H57.1523H57.1245H57.0968H57.0691H57.0413H57.0136H56.9858H56.9581H56.9303H56.9026H56.8749H56.8471H56.8194H56.7916H56.7639H56.7361H56.7084H56.6807H56.6529H56.6252H56.5974H56.5697H56.5419H56.5142H56.4865H56.4587H56.431H56.4032H56.3755H56.3477H56.32H56.2923H56.2645H56.2368H56.209H56.1813H56.1536H56.1258H56.0981H56.0703H56.0426H56.0148H55.9871H55.9594H55.9316H55.9039H55.8761H55.8484H55.8206H55.7929H55.7652H55.7374H55.7097H55.6819H55.6542H55.6264H55.5987H55.571H55.5432H55.5155H55.4877H55.46H55.4323H55.4045H55.3768H55.349H55.3213H55.2935H55.2658H55.2381H55.2103H55.1826H55.1548H55.1271H55.0993H55.0716H55.0439H55.0161H54.9884H54.9606H54.9329H54.9051H54.8774H54.8497H54.8219H54.7942H54.7664H54.7387H54.711H54.6832H54.6555H54.6277H54.6H54.5722H54.5445H54.5168H54.489H54.4613H54.4335H54.4058H54.378H54.3505C54.3496 82.1652 54.3499 80.4887 54.3503 78.8121C54.3504 77.9323 54.3506 77.0524 54.3506 76.1725L77.4394 44.2642Z" fill="white" stroke="white" stroke-width="0.5"/>
</svg>
