<svg width="98" height="98" viewBox="0 0 98 98" fill="none" xmlns="http://www.w3.org/2000/svg">
<rect width="98" height="98" fill="#D91656"/>
<path d="M58.4545 13.2886C58.8153 13.1829 59.1674 12.9916 59.5514 13.0003C59.831 13.064 59.9325 13.3495 60.0122 13.5915C60.7294 15.7723 61.4525 17.9531 62.1741 20.1324C62.7219 21.8843 64.3738 23.245 66.214 23.3754C66.485 23.3015 66.4068 22.9667 66.4184 22.7581C66.4589 22.3321 65.946 22.2292 65.7054 21.9713C63.9883 20.6208 63.7318 17.8603 65.1533 16.207C66.4097 14.6 68.9063 14.2044 70.593 15.3535C72.2797 16.4055 72.9781 18.7529 72.0928 20.5425C71.7522 21.309 71.1465 21.9176 70.4568 22.377C70.1728 22.5451 70.2989 22.9363 70.3018 23.2073C70.3307 23.4609 70.6611 23.3985 70.8393 23.4275C73.1027 23.4464 75.3198 24.5549 76.7079 26.3401C77.7541 27.6399 78.2207 29.2758 78.6902 30.8466C79.477 33.5824 79.6814 36.4471 79.6176 39.2814C79.6248 39.5495 79.3771 39.7828 79.1133 39.7712C78.1975 39.8031 77.2789 39.7987 76.3616 39.8031C76.0646 39.8378 75.7632 39.6045 75.7762 39.2944C75.7371 38.5931 75.7675 37.8889 75.7414 37.1875C75.6936 34.659 75.1966 32.1377 74.2663 29.7859C74.1808 29.3917 73.578 29.3613 73.4447 29.7352C73.3853 30.1148 73.4201 30.5003 73.4143 30.8828C73.4302 38.7989 73.4433 46.7135 73.4578 54.6296C72.1536 54.6281 70.8495 54.6296 69.5468 54.6296C69.441 50.5752 69.3526 46.5208 69.2353 42.4678C69.2411 41.8969 68.6644 41.4231 68.105 41.5332C67.595 41.6028 67.2313 42.1012 67.266 42.6055C67.1762 46.6135 67.0893 50.6215 67.0009 54.6281C65.6982 54.6296 64.3955 54.6296 63.0943 54.6281C63.1001 45.7441 63.1102 36.8586 63.1146 27.9731C63.1334 27.124 62.6596 26.3155 61.9539 25.859C60.3498 24.7983 59.1138 23.1986 58.5153 21.3685C57.7763 19.1558 57.0489 16.9388 56.3128 14.7232C56.1983 14.458 56.2099 14.0798 56.5113 13.948C57.1445 13.6886 57.8125 13.5263 58.4545 13.2886ZM66.6473 19.1181C66.6647 19.5354 66.6285 19.9977 66.898 20.3483C67.5442 21.283 69.1092 21.2946 69.7787 20.3817C70.067 20.0266 70.038 19.5485 70.0511 19.1181C69.7192 19.1181 69.386 19.1181 69.0541 19.1181C69.0396 19.3268 69.0541 19.5412 69.0063 19.747C68.744 20.1237 68.147 20.1643 67.8051 19.8745C67.5776 19.6934 67.6891 19.3659 67.6457 19.1167C67.3124 19.1181 66.9791 19.1181 66.6473 19.1181ZM67.2472 25.4127C67.224 25.4794 67.1747 25.6127 67.1516 25.6793C67.3878 26.3778 67.9992 27.0226 67.7804 27.8109C67.3689 29.6656 66.9588 31.5204 66.5401 33.3722C66.4995 33.6012 66.4082 33.8345 66.4502 34.0707C66.8878 34.5184 67.4153 34.8676 67.8877 35.2806C68.0587 35.3965 68.2673 35.6501 68.4919 35.4893C68.9585 35.1879 69.3657 34.8053 69.8134 34.4779C70.025 34.2924 70.3945 34.1127 70.2554 33.7678C69.8163 31.7798 69.3439 29.7989 68.9005 27.8123C68.689 27.0574 69.2614 26.4372 69.5251 25.7837C69.6468 25.617 69.4845 25.2997 69.2671 25.3388C68.5991 25.362 67.8877 25.233 67.2472 25.4127Z" fill="white"/>
<path d="M49.64 18.7703C49.8255 18.4631 50.2269 18.7037 50.2732 18.992C50.5804 19.8687 51.2745 20.5599 52.1454 20.8758C52.4395 20.9251 52.6989 21.2989 52.3961 21.5148C51.9222 21.7669 51.3933 21.9437 51.0151 22.3422C50.6152 22.7132 50.4138 23.2276 50.1834 23.7072C50.0733 23.9825 49.6385 23.9231 49.5806 23.6391C49.2734 22.8523 48.7561 22.1046 47.9461 21.7785C47.6708 21.6351 47.1114 21.5192 47.3099 21.0902C47.6896 20.7787 48.2156 20.6903 48.5836 20.3512C49.114 19.96 49.3574 19.3369 49.64 18.7703Z" fill="white"/>
<path d="M56.3229 32.7419C56.8373 32.5072 57.4793 32.8317 57.6213 33.3737C57.9473 34.3344 58.3052 35.2879 58.6023 36.2587C58.7877 36.8861 58.1618 37.5657 57.5213 37.4237C57.0764 37.3064 56.6736 37.0745 56.2534 36.8977C55.668 38.1106 55.0521 39.306 54.4088 40.4884C53.848 40.1725 53.2858 39.8596 52.7235 39.5466C53.3481 38.4149 53.9349 37.2614 54.4957 36.0964C54.0668 35.895 53.6075 35.7458 53.2133 35.4791C52.6772 35.0748 52.7974 34.1489 53.4118 33.8881C54.3783 33.4954 55.3492 33.1129 56.3229 32.7419Z" fill="white"/>
<path d="M51.4411 41.7245C51.9889 42.0592 52.5352 42.3983 53.08 42.7417C52.0367 44.4009 50.9209 46.0165 49.7182 47.5641C49.2096 47.1714 48.7068 46.7715 48.1967 46.3831C49.3531 44.8834 50.437 43.3286 51.4411 41.7245Z" fill="white"/>
<path d="M82.0723 45.2819C82.2519 45.0428 82.6084 45.2065 82.6606 45.4673C82.9576 46.244 83.4894 46.9627 84.282 47.283C84.5458 47.4264 85.0993 47.5351 84.908 47.9582C84.6225 48.2364 84.1907 48.3002 83.8691 48.5349C83.2445 48.9073 82.8953 49.5681 82.6185 50.2144C82.5475 50.4621 82.1548 50.5129 82.0491 50.2709C81.8056 49.8014 81.6216 49.2826 81.2304 48.9102C80.8609 48.5161 80.3508 48.3176 79.8784 48.0843C79.6509 48.0133 79.6132 47.6438 79.8291 47.5394C80.2928 47.2888 80.8174 47.1192 81.1883 46.7265C81.6187 46.3382 81.8071 45.7789 82.0723 45.2819Z" fill="white"/>
<path d="M42.6759 52.4357C44.0525 51.1374 45.3595 49.7651 46.5999 48.3349C47.0853 48.7537 47.5765 49.1681 48.0605 49.5898C46.7796 51.0765 45.4204 52.4951 43.9945 53.8427C43.5555 53.3732 43.1135 52.9066 42.6759 52.4357Z" fill="white"/>
<path d="M36.2886 57.5841C37.8463 56.5075 39.3504 55.3526 40.7907 54.1238C41.2124 54.6107 41.6312 55.099 42.047 55.5903C40.5502 56.8582 38.9983 58.0609 37.3826 59.1737C37.0175 58.6434 36.6523 58.113 36.2886 57.5841Z" fill="white"/>
<path d="M59.7339 56.7046C59.9484 56.6104 60.1889 56.635 60.4179 56.6263C65.7837 56.6321 71.148 56.6263 76.5123 56.6292C77.031 56.5611 77.5063 57.019 77.4484 57.5407C77.4527 66.1885 77.4469 74.8363 77.4513 83.4841C77.4411 83.816 77.486 84.1594 77.3933 84.4825C77.2643 84.8477 76.8688 85.0375 76.4993 85.0013C71.0451 84.9984 65.5895 85.0042 60.1368 84.9984C59.7484 85.0317 59.3557 84.7593 59.2847 84.3738C59.234 83.9812 59.2616 83.5856 59.2572 83.1929C59.2601 74.6407 59.2543 66.087 59.2601 57.5334C59.2355 57.1929 59.4137 56.8422 59.7339 56.7046Z" fill="white"/>
<path d="M29.2101 61.7573C30.9011 60.8966 32.566 59.9837 34.1745 58.9752C34.5164 59.5186 34.8569 60.0634 35.196 60.6097C33.5325 61.6458 31.8212 62.6079 30.0635 63.4774C29.781 62.9035 29.4926 62.3312 29.2101 61.7573Z" fill="white"/>
<path d="M21.607 64.896C23.4081 64.2903 25.1789 63.6005 26.9163 62.8311C27.1785 63.4179 27.4408 64.0063 27.7002 64.596C25.9034 65.3799 24.0805 66.1045 22.2214 66.7261C22.0156 66.116 21.8113 65.506 21.607 64.896Z" fill="white"/>
<path d="M13.6736 66.8826C15.5385 66.6015 17.3744 66.1566 19.19 65.6523C19.3668 66.2696 19.5436 66.8869 19.7204 67.5042C17.8106 68.0418 15.8761 68.504 13.9112 68.7967C13.8315 68.1592 13.7547 67.5201 13.6736 66.8826Z" fill="white"/>
<path d="M36.8537 67.4636C42.3455 67.4274 47.8388 67.4593 53.3307 67.4477C53.8175 67.381 54.3363 67.7462 54.316 68.2635C54.329 73.5322 54.3189 78.8023 54.3204 84.071C54.3769 84.5564 53.974 85.0419 53.4683 84.9984C48.1533 85.0071 42.8382 84.9955 37.5232 85.0027C37.2362 84.9955 36.9421 85.0259 36.6624 84.9535C36.3016 84.8289 36.1017 84.4449 36.1306 84.0768C36.1321 78.8125 36.1248 73.5481 36.135 68.2838C36.1161 67.8766 36.4422 67.4883 36.8537 67.4636Z" fill="white"/>
<path d="M13.4997 75.8231C13.7228 75.7391 13.9662 75.7608 14.1995 75.7536C19.5624 75.7608 24.9238 75.7507 30.2867 75.7579C30.7939 75.7043 31.2503 76.1593 31.1923 76.6679C31.1909 79.182 31.2039 81.6975 31.1851 84.2116C31.1952 84.6796 30.7417 85.0506 30.2867 84.9999C24.8253 85.0013 19.3653 85.0013 13.9039 84.9999C13.4504 85.0506 12.9983 84.6782 13.0099 84.2116C12.9925 81.6975 13.0041 79.1834 13.0026 76.6694C12.9751 76.3172 13.1649 75.9564 13.4997 75.8231Z" fill="white"/>
</svg>
