<svg width="98" height="98" viewBox="0 0 98 98" fill="none" xmlns="http://www.w3.org/2000/svg">
<rect width="98" height="98" fill="#8C0384"/>
<path d="M22 55.3511H30.0531C31.0416 55.3511 32.0167 55.573 32.9011 56.0034L39.7672 59.3255C40.6515 59.7525 41.6266 59.9744 42.6185 59.9744H46.1222C49.5115 59.9744 52.262 62.6341 52.262 65.9159C52.262 66.0504 52.1712 66.1647 52.0401 66.2017L43.4961 68.5655C41.963 68.989 40.3282 68.8408 38.8963 68.1485L31.5561 64.5978M36.7813 16.8578C41.7376 13.7845 46.0684 15.0219 48.6676 16.9956C49.7335 17.8026 50.2681 18.2061 50.5808 18.2061C50.8935 18.2061 51.4281 17.8026 52.494 16.9956C55.0932 15.0219 59.4207 13.7845 64.3803 16.8578C70.89 20.8927 72.3627 34.1946 57.3528 45.4184C54.4913 47.5569 53.0623 48.6262 50.5808 48.6262C48.0993 48.6262 46.6703 47.5569 43.8122 45.4184C28.7989 34.1946 30.2716 20.8894 36.7813 16.8578Z" stroke="white" stroke-width="5.04367" stroke-linecap="round" stroke-linejoin="round"/>
<path d="M52.2621 63.7572L67.7058 59.0127C69.0503 58.6002 70.4907 58.6229 71.8216 59.0776C73.1524 59.5322 74.3056 60.3957 75.1166 61.5447C76.3574 63.2595 75.853 65.7208 74.044 66.7632L48.7752 81.3461C47.9851 81.8033 47.1102 82.0948 46.2038 82.2029C45.2973 82.311 44.3784 82.2334 43.5029 81.9749L22.0001 75.593" stroke="white" stroke-width="5.04367" stroke-linecap="round" stroke-linejoin="round"/>
</svg>
