<svg width="98" height="98" viewBox="0 0 98 98" fill="none" xmlns="http://www.w3.org/2000/svg">
<rect width="98" height="98" fill="#D91656"/>
<path d="M24.8824 78V46.2441L15.1647 53.7059L11 48.1529L49.1765 19L63.0588 29.5853V22.4706H73.4706V37.5676L87.3529 48.1529L83.1882 53.7059L73.4706 46.2441V78H52.6471V57.1765H45.7059V78H24.8824ZM31.8235 71.0588H38.7647V50.2353H59.5882V71.0588H66.5294V40.9515L49.1765 27.7632L31.8235 40.9515V71.0588ZM42.2353 43.3809H56.1176C56.1176 41.5299 55.4235 40.0109 54.0353 38.824C52.6471 37.6371 51.0275 37.0447 49.1765 37.0471C47.3255 37.0494 45.7059 37.6428 44.3176 38.8275C42.9294 40.0121 42.2353 41.5299 42.2353 43.3809Z" fill="white"/>
</svg>
