<svg width="98" height="98" viewBox="0 0 98 98" fill="none" xmlns="http://www.w3.org/2000/svg">
<rect width="98" height="98" fill="#00A551"/>
<path d="M50.5834 16.8525C52.8524 15.8282 55.5148 15.7252 57.8617 16.5529C59.8878 17.2551 61.6632 18.645 62.8472 20.4309C64.043 22.2247 64.6304 24.4185 64.4694 26.5713C64.3427 28.5777 63.5639 30.522 62.3139 32.0914C66.0863 32.8042 69.4773 35.1814 71.4823 38.4483C73.16 38.5618 74.777 39.4066 75.7973 40.7477C77.0235 42.3184 77.372 44.5188 76.6777 46.3892C76.1563 47.9151 74.9485 49.1175 73.5256 49.8343C73.5243 51.9739 73.5283 54.1149 73.5243 56.2546C73.5243 56.9291 73.3976 57.597 73.189 58.2371C74.2978 58.2385 75.4066 58.2358 76.5153 58.2371C77.3812 58.2305 78.2511 58.3929 79.0431 58.748C81.0943 59.6337 82.5185 61.7509 82.5819 63.9842V64.3763C82.5225 65.9404 81.8255 67.4557 80.6851 68.5262C81.8466 69.8066 82.5304 71.5001 82.5819 73.2292V80.2118C82.4829 80.8823 82.075 81.5186 81.4467 81.7997C80.9847 82.036 80.4528 81.9977 79.9512 81.9977C58.9599 81.9938 37.9699 82.0004 16.9786 81.9938C15.9807 82.0096 15.0964 81.1807 15 80.1946V72.9784C15.136 70.9681 16.1246 69.041 17.6927 67.7752C16.0969 66.2691 15.1175 64.1492 15 61.9581V61.2981C15.0594 58.3639 16.7608 55.5444 19.311 54.1017C21.3292 52.9137 23.849 52.6432 26.0837 53.3322C27.8802 53.8747 29.4667 55.0402 30.5636 56.5582C32.0116 55.1339 34.0087 54.3023 36.0388 54.2746C35.3564 52.9784 35.1795 51.4922 35.2468 50.0455C35.3208 47.4887 35.0119 44.8818 35.6507 42.3739C36.1814 40.2197 37.2439 38.1988 38.7144 36.5397C40.7986 34.1651 43.7131 32.5389 46.8308 32.0241C45.6112 30.4652 44.8509 28.5473 44.7281 26.5687C44.5737 24.5148 45.099 22.4201 46.1919 20.6751C47.2347 19.004 48.7804 17.6484 50.5834 16.8525ZM53.4887 20.0679C51.3055 20.4626 49.4404 22.1838 48.8741 24.3287C48.3487 26.1885 48.816 28.2886 50.0845 29.7472C51.3345 31.2334 53.3474 32.0307 55.2759 31.7931C56.9417 31.6175 58.4992 30.6764 59.4549 29.3063C60.3406 28.0602 60.7062 26.4631 60.458 24.9557C60.202 23.2939 59.1896 21.7733 57.7666 20.881C56.5153 20.0719 54.9485 19.7867 53.4887 20.0679ZM41.2381 39.6957C39.9274 41.4011 39.2001 43.542 39.208 45.6923C39.2094 47.5006 39.1988 49.3076 39.2133 51.1146C39.241 52.8068 40.7616 54.2852 42.4525 54.2733C45.5359 54.2812 48.6193 54.2759 51.7028 54.2773C52.6782 54.3089 53.5863 53.5302 53.7051 52.5613C53.886 51.4552 52.9541 50.3438 51.8348 50.3227C49.5869 50.3068 47.339 50.3266 45.0911 50.3134C44.1011 50.3042 43.2181 49.4515 43.1732 48.4628C43.16 47.0967 43.1692 45.7305 43.1679 44.3657C43.1626 43.5011 43.7909 42.688 44.6278 42.4716C45.6838 42.1442 46.8889 42.9005 47.0829 43.9829C47.1779 44.7683 47.104 45.5642 47.1251 46.3549C48.6933 46.3628 50.2614 46.3522 51.8295 46.3602C52.9488 46.3707 54.0549 46.7165 54.9947 47.3237C55.7854 46.248 57.0064 45.6566 58.1323 45.0059C61.2461 43.2028 64.3651 41.4116 67.4776 39.6072C65.6904 37.2775 62.8194 35.8388 59.8825 35.8031C56.2289 35.7939 52.5739 35.7965 48.919 35.8018C45.9385 35.8322 43.0333 37.3224 41.2381 39.6957ZM70.5069 42.4861C69.9274 42.7105 69.4206 43.0827 68.8741 43.3744C65.4818 45.3359 62.0882 47.2934 58.6946 49.2522C58.0808 49.5901 57.6967 50.2778 57.7046 50.9747C57.6888 52.7778 57.702 54.5809 57.6782 56.3839C57.632 57.4095 56.6856 58.2741 55.66 58.2371C49.1486 58.2385 42.636 58.2345 36.1233 58.2385C34.6317 58.22 33.1851 59.1334 32.5528 60.4824C31.8968 61.805 32.0829 63.4879 33.0069 64.6389C33.7698 65.6223 35.0106 66.1978 36.254 66.1569C49.7175 66.1556 63.1798 66.1595 76.6421 66.1556C77.6967 66.1727 78.6365 65.2329 78.6207 64.1796C78.6405 63.1223 77.6967 62.1772 76.6394 62.1983C72.5027 62.1957 68.3672 62.197 64.2305 62.197C63.7817 62.1944 63.3118 62.234 62.8907 62.0479C62.1568 61.7654 61.6447 61.0077 61.6473 60.2237C61.6447 57.9335 61.6473 55.6434 61.646 53.3533C61.6328 52.8715 61.7846 52.3831 62.0935 52.0109C62.3931 51.6321 62.8458 51.4367 63.2498 51.1952C66.2091 49.4819 69.175 47.7817 72.1291 46.0632C72.9132 45.5972 73.2775 44.5571 72.9554 43.7018C72.6307 42.7316 71.4757 42.168 70.5069 42.4861ZM65.598 54.4251C65.623 55.1062 65.5834 55.7886 65.6191 56.4697C65.7141 57.527 66.7688 58.3731 67.8234 58.2213C68.783 58.1157 69.5724 57.2326 69.5644 56.2651C69.5684 54.8831 69.5658 53.5024 69.5658 52.1205C68.2471 52.8953 66.906 53.6331 65.598 54.4251ZM22.7138 57.0003C21.7793 57.1772 20.9068 57.6537 20.2508 58.3401C18.7447 59.8475 18.5348 62.424 19.7796 64.1545C20.9675 65.9444 23.4741 66.669 25.4277 65.7662C27.4723 64.9148 28.6616 62.4716 28.0372 60.3398C27.4789 58.0669 25.0079 56.5054 22.7138 57.0003ZM18.9612 73.4167C18.9572 74.9571 18.9612 76.4961 18.9599 78.0365C38.8477 78.0365 58.7342 78.0365 78.622 78.0365C78.618 76.4526 78.6312 74.8699 78.6154 73.2873C78.5916 71.5753 77.042 70.0811 75.3313 70.1181C57.6386 70.1154 39.9459 70.1154 22.2532 70.1181C20.4937 70.0785 18.9163 71.6572 18.9612 73.4167Z" fill="white"/>
</svg>
