<svg width="98" height="98" viewBox="0 0 98 98" fill="none" xmlns="http://www.w3.org/2000/svg">
<rect width="98" height="98" fill="#8C0384"/>
<path d="M53.815 14.9851C52.9108 12.719 50.3132 11.3352 47.9256 11.8617C46.5674 12.1331 45.3378 12.9692 44.5789 14.1263C43.2048 16.1335 43.5096 19.0621 45.2705 20.7427C46.9296 22.4483 49.7671 22.7595 51.7606 21.4629C53.9005 20.1732 54.8247 17.2748 53.815 14.9851Z" fill="white" stroke="white" stroke-width="0.5"/>
<path d="M24.4982 29.5449L24.4986 29.5444C28.5155 24.4822 34.1309 20.6989 40.3517 18.9335C41.1253 18.7869 41.6898 17.9232 41.3693 17.1409C41.1047 16.3993 40.2232 16.11 39.5534 16.3961C32.2028 18.5042 25.644 23.2014 21.2487 29.4537C19.0521 32.5647 17.3802 36.0464 16.344 39.7125C16.1103 40.3693 16.4783 41.1414 17.1331 41.3761C17.8475 41.6648 18.7018 41.2118 18.8834 40.4743C20.0118 36.5084 21.9266 32.7678 24.4982 29.5449Z" fill="white" stroke="white" stroke-width="0.5"/>
<path d="M58.7095 16.492L58.7095 16.492L58.7081 16.4916C58.6669 16.4796 58.623 16.4661 58.5769 16.452C58.4057 16.3994 58.2053 16.3379 58.0094 16.3086C57.7543 16.2705 57.4694 16.2794 57.1961 16.4338C56.6489 16.6878 56.445 17.2567 56.5024 17.7592C56.5598 18.2623 56.8874 18.772 57.4782 18.8974C64.6855 20.9232 71.0832 25.6466 75.1553 31.9251L75.1559 31.926C76.878 34.5579 78.1885 37.4535 79.0535 40.4776C79.2211 41.1561 79.9589 41.6132 80.6461 41.4315C81.3892 41.2681 81.8519 40.4292 81.5926 39.7133C80.0766 34.3547 77.2023 29.3943 73.3273 25.3987C69.3186 21.2508 64.2388 18.1434 58.7095 16.492Z" fill="white" stroke="white" stroke-width="0.5"/>
<path d="M47.4771 35.1377L47.4788 35.1376C50.27 34.839 53.154 35.3928 55.6137 36.7484L55.6155 36.7494C58.5665 38.3454 60.8991 41.0476 62.0445 44.2004L62.0448 44.2013C63.1254 47.1386 63.1692 50.4438 62.1669 53.4098L62.1666 53.4108C61.2413 56.1866 59.4034 58.6504 57.0128 60.3387L57.0115 60.3395C54.566 62.089 51.5357 62.9982 48.5304 62.8942L48.5287 62.8941C45.3536 62.8067 42.2237 61.578 39.8367 59.4833L39.8351 59.482C37.2533 57.2528 35.5392 54.0427 35.146 50.6527L35.1458 50.6511C34.7704 47.5867 35.4491 44.4039 37.0599 41.7685L37.0609 41.7668C39.2598 38.1046 43.223 35.5641 47.4771 35.1377ZM57.3622 34.6844C54.3456 32.8903 50.7472 32.129 47.2612 32.4903C43.2076 32.8925 39.3431 34.8677 36.6345 37.9093C33.9841 40.8328 32.4466 44.7316 32.3933 48.6774C32.3001 52.7557 33.7924 56.8382 36.4929 59.8929C38.933 62.6926 42.3349 64.6336 45.9927 65.2898C49.8171 65.9907 53.8906 65.3075 57.2518 63.3387C60.4725 61.4874 63.0315 58.5217 64.3904 55.0641C65.7258 51.6996 65.908 47.8958 64.9077 44.4194C63.7636 40.3656 60.9957 36.8099 57.3622 34.6844Z" fill="white" stroke="white" stroke-width="0.5"/>
<path d="M52.5515 40.4388C51.7325 38.677 49.5471 37.7529 47.7127 38.3996C46.3816 38.8316 45.3298 40.0086 45.0633 41.3861C44.8215 42.5362 45.1238 43.7813 45.869 44.6911C46.6806 45.7083 48.0088 46.2772 49.3059 46.1565C50.4991 46.0625 51.6231 45.3957 52.282 44.3985C53.0668 43.2471 53.1696 41.6845 52.5515 40.4388Z" fill="white" stroke="white" stroke-width="0.5"/>
<path d="M21.6803 46.5916C20.5955 44.3803 17.8626 43.1988 15.5084 43.9404C14.244 44.3174 13.1327 45.1803 12.468 46.3242C11.2072 48.3891 11.6469 51.279 13.4725 52.871C15.2781 54.5713 18.2921 54.6904 20.2224 53.1302C22.1878 51.6581 22.8335 48.7596 21.6803 46.5916Z" fill="white" stroke="white" stroke-width="0.5"/>
<path d="M85.6357 46.6334C84.5733 44.4157 81.8568 43.2102 79.4979 43.9257C78.1841 44.2983 77.0345 45.2018 76.3638 46.3934C75.1401 48.4695 75.6134 51.337 77.4471 52.9048C79.2401 54.5617 82.193 54.6773 84.11 53.1657C86.0964 51.7147 86.7744 48.813 85.6357 46.6334Z" fill="white" stroke="white" stroke-width="0.5"/>
<path d="M57.2667 56.551L57.2716 56.5305L57.2729 56.5094C57.4506 53.7997 56.1158 51.082 53.9445 49.4823C52.2065 48.1617 49.9334 47.6047 47.7819 47.9171C44.3397 48.3632 41.3889 51.1786 40.7837 54.5972L40.7836 54.5972L40.7826 54.604C40.7731 54.6676 40.763 54.733 40.7526 54.8C40.6922 55.1904 40.6239 55.6312 40.6322 56.0579C40.6421 56.5654 40.7596 57.0863 41.143 57.5222L41.1438 57.5231C42.2377 58.7537 43.9169 59.1538 45.3703 59.4512L45.3702 59.4513L45.3794 59.4529C48.3544 59.9471 51.4896 59.9043 54.3996 58.9827L54.3996 58.9828L54.4075 58.98C54.967 58.7821 55.5942 58.5227 56.1226 58.1442C56.6538 57.7639 57.0996 57.2527 57.2667 56.551Z" fill="white" stroke="white" stroke-width="0.5"/>
<path d="M27.2574 71.4523L27.2569 71.4518C23.3016 67.6426 20.3805 62.774 18.8852 57.4905C18.693 56.6891 17.7169 56.248 16.989 56.6508C16.4179 56.9365 16.131 57.646 16.3439 58.251C16.9421 60.365 17.753 62.42 18.7519 64.3761C22.9851 72.7264 30.8159 79.1789 39.8593 81.6423L39.8593 81.6424L39.865 81.6438C40.2512 81.7394 40.6391 81.6248 40.9289 81.4042C41.2165 81.1853 41.4292 80.8457 41.4511 80.4574C41.5238 79.7605 40.9899 79.1625 40.3591 79.0297C35.458 77.6317 30.9181 74.9974 27.2574 71.4523Z" fill="white" stroke="white" stroke-width="0.5"/>
<path d="M81.408 58.8754L81.4082 58.8754L81.4107 58.866C81.4341 58.7766 81.4632 58.6859 81.495 58.5866C81.4993 58.5731 81.5037 58.5593 81.5082 58.5454C81.5441 58.4331 81.5822 58.3109 81.6109 58.1857C81.6681 57.936 81.6935 57.6511 81.5818 57.359C81.332 56.637 80.4199 56.2652 79.7376 56.6367C79.3291 56.8285 79.1098 57.2278 79.0168 57.596C78.2831 60.1535 77.2179 62.6154 75.859 64.9039L75.8587 64.9046C71.8705 71.6666 65.2499 76.8264 57.7016 78.9956C57.1835 79.0981 56.6226 79.4535 56.5073 80.0795C56.3948 80.537 56.5735 80.9847 56.8712 81.2831C57.1712 81.5837 57.6227 81.7636 58.0863 81.6413L58.0888 81.6406C63.4735 80.1592 68.4575 77.2804 72.4767 73.4097C76.6215 69.4272 79.7351 64.3767 81.408 58.8754Z" fill="white" stroke="white" stroke-width="0.5"/>
<path d="M53.7715 78.8197C52.7913 76.4987 50.0238 75.1712 47.5986 75.8751C46.4298 76.1854 45.39 76.9208 44.6889 77.8994C43.2352 79.8646 43.4404 82.8128 45.1529 84.5579C46.8323 86.3951 49.8399 86.743 51.8867 85.3165C53.9761 83.9737 54.8231 81.0739 53.7715 78.8197Z" fill="white" stroke="white" stroke-width="0.5"/>
</svg>
