<svg width="98" height="98" viewBox="0 0 98 98" fill="none" xmlns="http://www.w3.org/2000/svg">
<rect width="98" height="98" fill="#8C0384"/>
<path d="M29.9711 26.0962C34.8059 24.5806 40.1198 24.6362 44.9175 26.2658C49.3703 27.76 53.3525 30.6031 56.234 34.3072C59.0898 37.9487 60.8392 42.4285 61.2527 47.0352C55.8119 47.0281 50.3712 47.0338 44.9304 47.0323C44.1619 47.0067 43.3977 47.4187 43.0113 48.0846C42.4738 48.94 42.6848 50.1477 43.4575 50.7878C43.9352 51.2198 44.5982 51.3453 45.2241 51.3125C50.5679 51.2968 55.9117 51.3282 61.257 51.2968C60.7352 57.221 57.9577 62.9127 53.5678 66.9305C50.4239 69.8463 46.4888 71.9008 42.2941 72.7976C37.6803 73.7957 32.7727 73.4136 28.3799 71.6827C23.9714 69.9589 20.0975 66.9063 17.3814 63.0282C14.6311 59.1386 13.1012 54.4179 13 49.6586V48.662C13.1098 43.465 14.9405 38.3222 18.1727 34.2488C21.1683 30.4291 25.3359 27.5419 29.9711 26.0962Z" fill="white"/>
<path d="M54.0626 26.2715C57.945 24.9584 62.1581 24.6547 66.1874 25.3961C71.1648 26.2886 75.8186 28.8294 79.3003 32.4894C83.4836 36.8294 85.9216 42.7792 86.0001 48.806V49.5474C85.9245 53.5881 84.8452 57.6102 82.8291 61.1176C80.3611 65.4591 76.5158 69.0022 71.9832 71.1009C66.4269 73.7101 59.8698 74.0437 54.0626 72.0705C55.4342 71.0525 56.7117 69.9133 57.8894 68.6785C59.3037 68.9509 60.7452 69.0906 62.1867 69.0606C66.8604 68.9965 71.4771 67.1943 74.9702 64.0904C78.7728 60.7597 81.2308 55.9363 81.6429 50.8933C81.9979 46.914 81.1139 42.832 79.1292 39.363C76.8907 35.4136 73.2678 32.2627 69.0304 30.6273C65.5116 29.2443 61.595 28.9263 57.8908 29.6635C56.7131 28.4273 55.4342 27.2895 54.0626 26.2715Z" fill="white"/>
<path d="M67.2182 42.7878C67.9924 42.4527 68.9505 42.6438 69.5465 43.2398C70.9794 44.6598 72.3995 46.0942 73.831 47.5157C74.7206 48.2671 74.8504 49.7484 74.0391 50.6025C72.5506 52.1167 71.0407 53.6109 69.5379 55.1108C68.865 55.7823 67.7372 55.9135 66.9316 55.4088C66.0818 54.9212 65.6883 53.7948 66.0277 52.8795C66.2401 52.2136 66.8361 51.8016 67.2923 51.3111C65.2848 51.3082 63.2788 51.3097 61.2713 51.3097C61.3525 49.8853 61.3782 48.4567 61.2584 47.0338C63.2702 47.0309 65.2806 47.0338 67.2923 47.0309C66.8161 46.5248 66.1973 46.0885 66.002 45.3856C65.6684 44.3761 66.2201 43.1685 67.2182 42.7878Z" fill="white"/>
</svg>
