<svg width="100" height="101" viewBox="0 0 100 101" fill="none" xmlns="http://www.w3.org/2000/svg">
<g style="mix-blend-mode:multiply">
<path d="M50.0418 100.74C77.6308 100.74 99.9962 78.3872 99.9962 50.8132C99.9962 23.2392 77.6308 0.885986 50.0418 0.885986C22.4527 0.885986 0.0874023 23.2392 0.0874023 50.8132C0.0874023 78.3872 22.4527 100.74 50.0418 100.74Z" fill="#8C0384"/>
</g>
<path d="M50.5 20L13 40.3333L26.6364 47.7211V68.0544L50.5 81L74.3636 68.0544V47.7211L81.1818 44.0272V67.4444H88V40.3333L50.5 20ZM73.75 40.3333L50.5 52.94L27.25 40.3333L50.5 27.7267L73.75 40.3333ZM67.5455 64.0556L50.5 73.2733L33.4545 64.0556V51.415L50.5 60.6667L67.5455 51.415V64.0556Z" fill="white"/>
</svg>
