<svg width="101" height="101" viewBox="0 0 101 101" fill="none" xmlns="http://www.w3.org/2000/svg">
<g style="mix-blend-mode:multiply">
<path d="M50.6462 100.278C78.2352 100.278 100.601 77.9251 100.601 50.351C100.601 22.777 78.2352 0.423828 50.6462 0.423828C23.0571 0.423828 0.691772 22.777 0.691772 50.351C0.691772 77.9251 23.0571 100.278 50.6462 100.278Z" fill="#8C0384"/>
</g>
<path d="M70 78H66V72C65.9968 69.3488 64.9422 66.8071 63.0676 64.9324C61.1929 63.0578 58.6512 62.0032 56 62H44C41.3488 62.0032 38.8071 63.0578 36.9324 64.9324C35.0578 66.8071 34.0032 69.3488 34 72V78H30V72C30.0053 68.2886 31.482 64.7307 34.1063 62.1063C36.7307 59.482 40.2886 58.0053 44 58H56C59.7114 58.0053 63.2693 59.482 65.8937 62.1063C68.518 64.7307 69.9947 68.2886 70 72V78ZM28 30C27.4696 30 26.9609 30.2107 26.5858 30.5858C26.2107 30.9609 26 31.4696 26 32V50H30V32C30 31.4696 29.7893 30.9609 29.4142 30.5858C29.0391 30.2107 28.5304 30 28 30Z" fill="white"/>
<path d="M26 22V26H36V40C36 43.713 37.475 47.274 40.1005 49.8995C42.726 52.525 46.287 54 50 54C53.713 54 57.274 52.525 59.8995 49.8995C62.525 47.274 64 43.713 64 40V26H74V22H26ZM40 26H60V32H40V26ZM50 50C47.3478 50 44.8043 48.9464 42.9289 47.0711C41.0536 45.1957 40 42.6522 40 40V36H60V40C60 42.6522 58.9464 45.1957 57.0711 47.0711C55.1957 48.9464 52.6522 50 50 50Z" fill="white"/>
</svg>
