<svg width="101" height="101" viewBox="0 0 101 101" fill="none" xmlns="http://www.w3.org/2000/svg">
<g style="mix-blend-mode:multiply">
<path d="M50.3045 100.601C77.8935 100.601 100.259 78.2473 100.259 50.6733C100.259 23.0993 77.8935 0.746094 50.3045 0.746094C22.7154 0.746094 0.350098 23.0993 0.350098 50.6733C0.350098 78.2473 22.7154 100.601 50.3045 100.601Z" fill="#640D5F"/>
</g>
<path d="M68 74L79.233 62.767C79.5636 62.4368 79.7496 61.9888 79.75 61.5215V46.0938C79.75 44.9251 79.2858 43.8044 78.4594 42.9781C77.6331 42.1517 76.5124 41.6875 75.3438 41.6875C74.1751 41.6875 73.0544 42.1517 72.2281 42.9781C71.4017 43.8044 70.9375 44.9251 70.9375 46.0938V59.3125" stroke="white" stroke-width="4.40625" stroke-linecap="round" stroke-linejoin="round"/>
<path d="M68 62.25L70.5204 59.7296C70.6533 59.5978 70.7587 59.4408 70.8303 59.2678C70.9019 59.0948 70.9383 58.9093 70.9375 58.7221C70.9354 58.4583 70.8609 58.2001 70.7221 57.9758C70.5832 57.7515 70.3854 57.5696 70.1503 57.4501L68.8489 56.8009C67.7465 56.2497 66.4985 56.0592 65.2818 56.2563C64.0651 56.4535 62.9412 57.0284 62.0692 57.8996L59.4401 60.5286C58.3383 61.6301 57.7191 63.1242 57.7188 64.6822V74M32.75 74L21.517 62.767C21.1864 62.4368 21.0004 61.9888 21 61.5215V46.0938C21 44.9251 21.4642 43.8044 22.2906 42.9781C23.1169 42.1517 24.2376 41.6875 25.4062 41.6875C26.5749 41.6875 27.6956 42.1517 28.5219 42.9781C29.3483 43.8044 29.8125 44.9251 29.8125 46.0938V59.3125" stroke="white" stroke-width="4.40625" stroke-linecap="round" stroke-linejoin="round"/>
<path d="M32.75 62.25L30.2296 59.7296C29.9664 59.4597 29.8171 59.099 29.8125 58.7221C29.8125 58.1845 30.118 57.6939 30.5998 57.4501L31.9011 56.8009C33.0035 56.2497 34.2515 56.0592 35.4682 56.2563C36.6849 56.4535 37.8088 57.0284 38.6808 57.8996L41.3099 60.5286C42.4117 61.6301 43.0309 63.1242 43.0312 64.6822V74M55.2718 50.5H45.4782V43.6468H38.625V33.8532H45.4782V27H55.2718V33.8532H62.125V43.6468H55.2718V50.5Z" stroke="white" stroke-width="4.40625" stroke-linecap="round" stroke-linejoin="round"/>
</svg>
