<svg width="101" height="101" viewBox="0 0 101 101" fill="none" xmlns="http://www.w3.org/2000/svg">
<g style="mix-blend-mode:multiply">
<path d="M50.1558 100.631C77.7449 100.631 100.11 78.2776 100.11 50.7036C100.11 23.1295 77.7449 0.776367 50.1558 0.776367C22.5668 0.776367 0.201416 23.1295 0.201416 50.7036C0.201416 78.2776 22.5668 100.631 50.1558 100.631Z" fill="#8C0384"/>
</g>
<path d="M70.8987 66.4225C82.2181 52.0691 79.1612 37.8361 71.0305 32.8482C63.3467 28.1354 56.6399 30.0348 52.6117 33.0602L49.6494 35.2777M70.8987 66.4225C68.1827 69.869 64.6388 73.3184 60.1351 76.6504C55.7088 79.9307 53.4941 81.5695 49.6494 81.5695C45.8046 81.5695 43.5929 79.9307 39.1637 76.6504C15.9061 59.4378 18.1866 39.0336 28.2683 32.8482C35.9521 28.1354 42.6589 30.0348 46.687 33.0602L49.6494 35.2777M70.8987 66.4225L55.0699 48.465C54.7556 48.1097 54.3255 47.8773 53.856 47.8091C53.3866 47.7409 52.9081 47.8414 52.5057 48.0926L46.243 52.0061C45.0148 52.7831 43.5338 53.055 42.1097 52.765C40.6856 52.4749 39.4289 51.6454 38.6025 50.45C37.776 49.2545 37.4439 47.7858 37.6756 46.3511C37.9073 44.9164 38.6848 43.6269 39.8456 42.7523L49.6494 35.2777" stroke="white" stroke-width="4.29742" stroke-linecap="round" stroke-linejoin="round"/>
</svg>
