<svg width="63" height="57" viewBox="0 0 63 57" fill="none" xmlns="http://www.w3.org/2000/svg">
<path d="M52.8987 39.4225C64.2181 25.0691 61.1612 10.8361 53.0305 5.84821C45.3467 1.13538 38.6399 3.03484 34.6117 6.06022L31.6494 8.27769M52.8987 39.4225C50.1827 42.869 46.6388 46.3184 42.1351 49.6504C37.7088 52.9307 35.4942 54.5695 31.6494 54.5695C27.8046 54.5695 25.5929 52.9307 21.1637 49.6504C-2.09393 32.4378 0.18657 12.0336 10.2683 5.84821C17.9521 1.13538 24.6589 3.03484 28.687 6.06022L31.6494 8.27769M52.8987 39.4225L37.0699 21.465C36.7556 21.1097 36.3255 20.8773 35.856 20.8091C35.3866 20.7409 34.9081 20.8414 34.5057 21.0926L28.243 25.0061C27.0148 25.7831 25.5338 26.055 24.1097 25.765C22.6856 25.4749 21.4289 24.6454 20.6025 23.45C19.776 22.2545 19.4439 20.7858 19.6756 19.3511C19.9073 17.9164 20.6848 16.6269 21.8456 15.7523L31.6494 8.27769" stroke="white" stroke-width="4.29742" stroke-linecap="round" stroke-linejoin="round"/>
</svg>
